<?xml version="1.0" standalone="no"?>
<!DOCTYPE svg PUBLIC "-//W3C//DTD SVG 20010904//EN"
 "http://www.w3.org/TR/2001/REC-SVG-20010904/DTD/svg10.dtd">
<svg version="1.0" xmlns="http://www.w3.org/2000/svg"
 width="2048.000000pt" height="1536.000000pt" viewBox="0 0 2048.000000 1536.000000"
 preserveAspectRatio="xMidYMid meet">

<g transform="translate(0.000000,1536.000000) scale(0.100000,-0.100000)"
fill="#000000" stroke="none">
<path d="M9745 11630 c-609 -36 -1028 -203 -1347 -538 -261 -275 -417 -655
-473 -1157 -31 -270 -29 -816 3 -1041 6 -44 10 -49 32 -49 24 0 25 3 28 63 3
61 22 81 22 22 0 -16 5 -32 10 -35 6 -3 10 -16 10 -28 0 -18 -2 -19 -10 -7 -9
13 -11 13 -19 1 -13 -20 -2 -43 19 -36 15 5 16 -1 12 -50 -6 -68 22 -145 44
-123 7 7 17 36 22 63 8 42 11 46 17 27 9 -28 27 -24 36 9 4 13 7 20 8 15 1 -5
8 -3 16 4 26 22 18 -11 -17 -70 -22 -36 -41 -56 -58 -60 -25 -6 -42 -40 -20
-40 7 0 10 -6 7 -14 -3 -8 1 -36 9 -63 8 -26 13 -56 10 -66 -3 -14 -2 -16 9
-7 8 6 17 26 20 43 17 84 26 106 39 101 8 -3 17 -1 21 5 8 14 25 14 25 1 0 -6
-15 -44 -32 -86 -23 -52 -34 -70 -39 -57 -4 13 -9 10 -23 -18 -17 -33 -17 -34
6 -54 13 -11 22 -28 20 -38 -3 -16 -1 -17 16 -8 30 16 64 69 78 120 l13 46 1
-35 c1 -38 1 -38 31 39 6 13 12 21 15 19 5 -6 -8 -70 -21 -100 -5 -12 -2 -20
10 -24 22 -9 55 28 55 61 0 14 6 38 14 53 12 24 21 92 17 130 -2 24 -32 11
-46 -21 -7 -18 -22 -41 -33 -51 -20 -17 -21 -17 -24 16 -3 28 -5 30 -12 13 -4
-11 -14 -33 -22 -50 l-14 -30 7 40 c3 22 15 52 26 67 11 15 23 44 26 64 3 21
12 39 20 42 10 3 11 0 2 -17 -13 -23 4 -61 26 -61 12 0 43 92 43 132 0 25 20
64 20 40 0 -7 5 -10 10 -7 13 8 13 105 0 125 -8 13 -11 11 -16 -7 -4 -13 -10
-21 -14 -18 -5 3 -11 -13 -15 -35 -10 -58 -25 -49 -25 15 0 41 -5 60 -19 74
-11 11 -18 21 -17 23 9 11 15 58 7 58 -5 0 -14 -12 -19 -27 -10 -28 -10 -27
-11 10 -1 27 3 37 14 37 10 0 15 10 15 32 0 17 3 28 7 25 10 -10 33 13 33 33
0 10 6 20 14 23 11 4 9 -8 -8 -51 -24 -65 -24 -142 0 -142 10 0 13 -7 8 -25
-4 -15 -2 -25 4 -25 17 0 25 39 12 55 -9 10 -9 22 -2 42 l10 28 1 -28 c1 -16
5 -26 11 -22 6 4 10 29 9 57 -2 43 1 53 25 71 21 17 30 38 42 100 17 81 13
113 -10 104 -8 -3 -16 2 -19 14 -7 27 -36 24 -47 -5 -12 -34 -27 -40 -35 -15
-8 26 -17 18 -31 -29 l-12 -37 -1 33 c-1 22 -5 31 -12 26 -12 -7 -3 32 11 51
17 23 21 65 6 71 -34 13 260 238 456 349 146 82 538 255 578 255 5 0 18 4 28
9 16 9 88 31 217 65 106 29 217 47 405 67 239 24 637 36 735 21 213 -33 346
-61 356 -76 4 -5 14 -6 23 -3 9 4 16 2 16 -4 0 -6 5 -7 10 -4 6 3 10 1 10 -5
0 -6 5 -8 10 -5 12 7 113 -25 118 -37 2 -5 12 -8 21 -8 33 0 128 -71 152 -114
24 -42 72 -206 63 -215 -19 -19 -71 79 -118 223 -4 10 -9 17 -12 14 -5 -5 56
-181 76 -218 11 -20 76 -54 90 -45 4 2 18 -7 30 -20 13 -14 28 -25 33 -25 5 0
-7 16 -27 35 -21 19 -42 35 -47 35 -5 0 -9 6 -9 13 0 7 -14 57 -30 110 -20 64
-41 109 -61 132 -36 41 -30 48 6 9 14 -15 25 -22 25 -15 0 16 41 -6 165 -88
122 -80 174 -126 191 -168 14 -32 9 -68 -6 -58 -5 3 2 -23 16 -57 13 -34 24
-63 24 -65 0 -3 5 -1 12 3 7 4 8 3 4 -4 -7 -12 5 -54 43 -151 12 -29 20 -55
18 -57 -5 -6 -61 74 -86 123 -11 23 -28 70 -35 104 -16 66 -30 94 -20 38 15
-82 39 -145 80 -212 56 -91 84 -147 84 -170 0 -16 -5 -15 -47 10 -27 15 -50
31 -51 35 -2 5 -8 6 -12 3 -5 -3 -18 12 -30 34 -26 53 -25 61 4 31 13 -14 22
-29 21 -35 -1 -5 0 -6 3 -2 2 4 11 2 20 -5 13 -11 14 -10 4 9 -7 12 -27 34
-46 50 -31 26 -34 33 -39 105 -6 90 -36 161 -79 186 -15 9 -28 22 -28 29 0 8
-15 44 -33 81 -18 37 -39 86 -47 110 -7 23 -15 40 -17 38 -3 -2 4 -34 15 -70
11 -36 18 -66 15 -66 -23 0 -49 35 -87 117 -26 53 -48 94 -51 92 -2 -3 18 -50
44 -106 40 -81 54 -102 75 -107 29 -7 48 -42 49 -88 0 -17 5 -24 13 -21 8 3
17 -10 23 -34 19 -68 12 -82 -16 -31 -14 27 -28 46 -31 44 -2 -3 32 -72 77
-155 45 -82 81 -154 81 -159 0 -21 42 -60 95 -87 66 -33 89 -62 83 -105 -3
-17 -1 -33 3 -35 4 -3 5 -33 2 -68 -6 -64 -17 -94 -21 -53 -1 12 -6 34 -11 47
-14 38 -6 -62 13 -154 9 -43 15 -95 15 -115 -1 -36 -2 -35 -9 10 -5 25 -15 72
-24 102 -9 31 -16 78 -15 104 1 45 -38 208 -40 167 -1 -17 -3 -17 -11 -5 -9
13 -10 13 -10 0 0 -25 12 -60 19 -56 3 2 7 -21 9 -52 1 -31 7 -61 12 -66 12
-12 13 -29 2 -22 -5 3 -5 -18 0 -47 5 -29 12 -99 16 -157 l7 -105 5 100 5 100
12 -85 c7 -47 14 -148 17 -225 5 -136 4 -138 -9 -80 -8 33 -30 110 -50 170
-27 79 -39 138 -45 210 l-8 100 3 -110 c2 -84 8 -123 25 -164 11 -30 19 -60
16 -68 -3 -8 -2 -12 3 -9 9 6 49 -136 55 -199 3 -22 5 -67 5 -100 1 -42 4 -56
11 -45 5 8 7 40 4 70 -6 51 -5 54 9 35 13 -16 18 -18 28 -7 11 10 10 12 -4 12
-22 0 -25 17 -32 198 -4 104 -2 151 5 147 5 -3 10 -18 10 -33 1 -15 9 -60 19
-101 13 -57 19 -69 24 -51 3 13 0 51 -8 84 -7 34 -16 84 -19 111 l-6 50 20
-55 c31 -85 105 -209 117 -196 3 3 -6 20 -20 38 -40 52 -85 155 -103 235 -21
97 -14 111 15 26 29 -85 113 -263 123 -263 12 0 9 81 -6 120 -7 19 -33 65 -59
103 -25 37 -51 86 -58 110 -16 60 -30 91 -24 52 4 -24 4 -26 -4 -10 -14 30
-14 118 1 109 8 -5 9 -2 5 10 -9 23 -19 106 -11 86 4 -8 22 -49 41 -90 45 -97
66 -155 98 -265 30 -108 45 -145 56 -145 4 0 2 12 -6 28 -8 15 -26 69 -40 121
-14 52 -39 128 -55 169 -33 82 -34 86 -20 77 18 -11 10 6 -13 28 -27 26 -82
170 -73 193 3 8 -1 31 -9 51 -10 25 -12 39 -5 43 7 4 5 19 -5 44 -9 21 -18 52
-20 70 -5 51 -26 100 -36 84 -5 -7 -9 -8 -9 -3 0 51 55 25 62 -29 2 -19 0 -32
-4 -30 -15 9 -7 -11 22 -56 41 -63 80 -137 95 -181 7 -20 24 -54 38 -75 13
-22 27 -50 32 -64 6 -23 5 -23 -16 6 -34 44 -139 145 -139 133 0 -5 20 -31 44
-57 24 -26 49 -57 55 -70 7 -12 16 -20 22 -17 10 7 36 -47 46 -97 5 -25 3 -29
-8 -23 -11 7 -12 6 -2 -6 7 -8 17 -46 23 -84 11 -68 43 -138 74 -165 24 -19
19 -7 -19 50 -24 35 -35 63 -35 88 l0 36 33 -32 c18 -18 36 -30 39 -27 10 11
67 -64 77 -102 6 -21 11 -43 11 -50 0 -6 5 -15 11 -19 8 -5 10 0 6 17 -17 61
-16 70 2 24 11 -27 20 -42 20 -32 1 14 6 17 24 12 19 -6 17 -3 -11 25 -18 18
-31 39 -28 47 3 7 2 13 -3 13 -4 0 -8 6 -9 13 -7 87 -16 149 -27 181 -7 21
-11 44 -8 52 5 13 -55 136 -69 142 -5 2 -5 9 -1 15 3 7 2 9 -2 4 -5 -4 -18 1
-29 10 -12 11 -7 1 10 -22 39 -51 84 -130 84 -146 0 -25 -61 46 -71 83 -5 21
-12 38 -15 38 -2 0 -1 -12 2 -27 7 -27 7 -26 -26 8 -34 35 -23 14 16 -31 11
-14 24 -34 28 -44 7 -20 7 -20 -16 -1 -19 17 -19 15 3 -10 14 -17 34 -57 43
-90 32 -110 38 -126 42 -122 5 5 -28 135 -46 182 -17 46 -4 40 26 -11 23 -39
29 -62 31 -122 1 -41 5 -84 8 -96 5 -15 1 -12 -13 9 -11 17 -36 46 -56 65 -21
19 -47 50 -58 68 -11 18 -23 31 -26 27 -3 -3 5 -19 17 -36 13 -17 20 -33 18
-36 -3 -2 -10 5 -17 16 -6 12 -14 20 -18 17 -8 -4 -12 53 -15 181 -1 44 -5 79
-9 76 -5 -2 -8 6 -8 19 0 36 -11 68 -21 62 -5 -3 -7 1 -4 8 3 7 -23 51 -56 98
-34 47 -74 110 -90 141 -15 32 -45 71 -65 87 -31 26 -41 45 -59 107 l-22 76
24 -23 c39 -36 104 -140 99 -155 -3 -8 -1 -11 4 -8 9 5 28 -29 60 -110 6 -16
12 -32 12 -35 2 -10 33 -29 48 -30 20 0 232 171 343 276 48 46 92 84 97 84 10
0 168 149 256 240 82 86 222 258 251 309 15 25 42 64 60 87 18 22 40 56 48 75
9 19 24 49 35 67 19 31 19 35 4 65 -40 78 -180 190 -333 266 -200 101 -613
203 -976 241 -60 7 -129 16 -151 21 -23 4 -80 13 -128 18 -97 11 -102 14 -218
92 -436 294 -1019 435 -1643 399z m395 -70 c137 -10 384 -49 469 -74 218 -65
334 -107 441 -157 135 -65 270 -139 270 -149 0 -6 -15 -5 -245 25 -66 8 -172
15 -235 15 -63 0 -162 4 -220 10 -58 5 -163 12 -235 15 -71 4 -161 9 -200 11
-375 19 -820 -7 -1060 -62 -346 -79 -549 -205 -673 -414 -31 -52 -70 -116 -88
-141 -17 -25 -51 -81 -75 -125 -23 -43 -65 -122 -94 -174 -28 -52 -56 -104
-62 -115 -34 -61 -61 -125 -67 -160 -5 -22 -12 -45 -17 -51 -5 -6 -18 -47 -28
-90 -11 -44 -27 -110 -37 -149 -9 -38 -18 -86 -19 -105 -1 -19 -9 -91 -18
-160 -10 -68 -17 -145 -17 -170 -1 -38 -2 -42 -12 -26 -14 24 5 445 28 616 92
697 408 1178 939 1431 198 95 415 155 655 183 80 9 154 19 165 20 48 8 311 5
435 -4z m1729 -1910 c1 -13 0 -13 -9 0 -5 8 -9 24 -9 35 l0 20 9 -20 c5 -11 9
-27 9 -35z m-90 -122 c14 -80 14 -111 1 -103 -17 11 -57 98 -64 140 -4 22 -9
54 -12 70 l-5 30 34 -36 c27 -29 37 -49 46 -101z m160 -68 c0 -10 -3 -8 -9 5
-12 27 -12 43 0 25 5 -8 9 -22 9 -30z m-3635 -12 c-4 -6 -10 -25 -14 -42 l-7
-31 -7 27 c-5 18 -3 32 6 42 15 18 32 21 22 4z m3719 -40 c15 -21 22 -35 14
-33 -13 6 -47 56 -47 71 0 4 1 5 3 3 2 -2 15 -21 30 -41z m-3818 -81 c-20 -48
-19 -57 5 -57 17 0 18 -3 8 -24 -9 -21 -13 -23 -24 -11 -8 7 -14 23 -14 34 0
13 -6 21 -16 21 -12 0 -7 10 16 40 38 48 46 47 25 -3z m3929 -108 c26 -85 18
-99 -15 -29 -17 36 -37 83 -45 105 l-14 40 30 -32 c16 -18 36 -56 44 -84z
m-3846 85 c-4 -3 -10 -6 -15 -6 -4 0 -14 -4 -21 -10 -7 -6 -16 -8 -19 -4 -4 4
-1 11 7 16 16 10 57 14 48 4z m142 -21 c-1 -21 -38 -69 -46 -60 -3 3 0 22 7
41 13 37 39 49 39 19z m-110 -17 c0 -8 5 -16 12 -18 8 -3 6 -17 -6 -50 -12
-32 -23 -45 -32 -41 -8 3 -14 9 -14 15 0 5 -4 6 -10 3 -14 -9 -12 -72 3 -78
10 -4 10 -7 0 -18 -11 -11 -13 -11 -13 2 -1 7 -11 -4 -23 -26 l-22 -40 -3 38
c-2 28 2 42 14 51 11 8 17 27 17 52 0 36 2 40 26 39 24 0 26 4 29 43 2 23 7
42 13 42 5 0 9 -6 9 -14z m-140 -84 c0 -21 5 -43 11 -49 7 -7 4 -35 -11 -94
-20 -76 -20 -84 -6 -95 14 -10 12 -15 -19 -43 -20 -17 -40 -31 -45 -31 -5 0
-14 18 -20 40 -10 39 -30 55 -30 25 0 -24 -20 -17 -21 8 -6 133 -4 158 18 199
12 24 22 37 23 30 0 -7 -5 -22 -10 -32 -17 -31 -23 -139 -9 -156 6 -7 15 -11
20 -8 5 3 9 -6 9 -20 0 -35 20 -43 42 -16 21 26 23 47 7 87 l-12 28 -10 -27
c-13 -34 -23 -35 -30 -6 -7 26 -1 38 20 38 13 0 14 8 9 39 -3 22 -2 42 3 45 5
3 12 -15 16 -40 5 -35 10 -44 23 -42 13 3 16 13 14 43 -2 21 -9 50 -16 64 -15
30 -11 51 10 51 10 0 14 -12 14 -38z m3938 -87 c-3 -3 -9 2 -12 12 -6 14 -5
15 5 6 7 -7 10 -15 7 -18z m-3888 -128 c0 -7 -9 -13 -21 -14 -17 -2 -18 1 -9
13 15 17 30 18 30 1z m-22 -99 c-13 -18 -33 -46 -45 -61 -21 -26 -23 -27 -23
-8 0 12 -4 21 -9 21 -5 0 -16 3 -25 6 -12 5 -16 -1 -17 -22 -1 -16 -4 -40 -9
-54 -5 -17 -7 -4 -7 41 l0 65 33 1 c38 1 98 35 110 61 7 16 7 16 11 0 2 -9 -6
-32 -19 -50z m59 10 c-3 -7 -5 -2 -5 12 0 14 2 19 5 13 2 -7 2 -19 0 -25z
m3730 -40 c-3 -8 -6 -5 -6 6 -1 11 2 17 5 13 3 -3 4 -12 1 -19z m264 5 c13
-16 12 -17 -3 -4 -10 7 -18 15 -18 17 0 8 8 3 21 -13z m-3939 -34 c5 -3 3 -9
-6 -12 -13 -5 -16 0 -15 26 1 21 3 25 6 12 3 -11 10 -23 15 -26z m-65 -11 c-3
-8 -6 -5 -6 6 -1 11 2 17 5 13 3 -3 4 -12 1 -19z m3839 -57 c33 -41 53 -85 59
-132 l6 -44 -27 50 c-30 55 -90 201 -71 171 7 -10 21 -30 33 -45z m-3836 -30
c0 -28 -25 -61 -46 -61 -32 0 -37 13 -20 52 8 18 17 41 20 52 6 17 8 16 26 -7
11 -14 20 -30 20 -36z"/>
<path d="M11284 10050 c81 -88 80 -87 71 -70 -22 40 -49 71 -88 101 -39 30
-37 28 17 -31z"/>
<path d="M8377 9503 c-4 -3 -7 -13 -7 -20 0 -8 -7 -21 -15 -29 -30 -30 -12
-90 19 -65 8 7 18 11 22 10 23 -4 34 3 34 21 0 17 -5 19 -27 15 -26 -5 -26 -5
-5 4 22 10 31 41 12 41 -5 0 -10 7 -10 15 0 16 -12 20 -23 8z"/>
<path d="M11896 9227 c3 -10 9 -15 12 -12 3 3 0 11 -7 18 -10 9 -11 8 -5 -6z"/>
<path d="M11931 9084 c0 -11 3 -14 6 -6 3 7 2 16 -1 19 -3 4 -6 -2 -5 -13z"/>
<path d="M9848 9063 c6 -2 18 -2 25 0 6 3 1 5 -13 5 -14 0 -19 -2 -12 -5z"/>
<path d="M10007 9058 c-3 -9 3 -13 19 -13 23 1 48 15 26 15 -5 0 -17 3 -25 6
-8 3 -17 -1 -20 -8z"/>
<path d="M8449 9025 c-1 -19 -2 -40 -3 -47 -1 -6 4 -13 11 -15 16 -6 27 39 19
72 -9 37 -26 31 -27 -10z"/>
<path d="M9948 9043 c7 -3 16 -2 19 1 4 3 -2 6 -13 5 -11 0 -14 -3 -6 -6z"/>
<path d="M11498 9023 c7 -3 16 -2 19 1 4 3 -2 6 -13 5 -11 0 -14 -3 -6 -6z"/>
<path d="M11608 9023 c7 -3 16 -2 19 1 4 3 -2 6 -13 5 -11 0 -14 -3 -6 -6z"/>
<path d="M9435 9010 c-3 -6 1 -7 9 -4 18 7 21 14 7 14 -6 0 -13 -4 -16 -10z"/>
<path d="M9910 9010 c0 -12 28 -25 36 -17 3 3 -4 10 -15 17 -15 7 -21 7 -21 0z"/>
<path d="M9725 9001 c-3 -6 3 -9 12 -9 10 0 32 -2 48 -6 l30 -8 -29 16 c-32
18 -52 20 -61 7z"/>
<path d="M11220 8988 c-34 -11 -34 -11 -10 -18 14 -5 39 -8 55 -8 29 1 29 1
-5 8 -19 4 -27 8 -17 9 9 0 17 6 17 11 0 6 -1 10 -2 9 -2 0 -19 -6 -38 -11z"/>
<path d="M11493 8983 c9 -2 25 -2 35 0 9 3 1 5 -18 5 -19 0 -27 -2 -17 -5z"/>
<path d="M11628 8983 c6 -2 18 -2 25 0 6 3 1 5 -13 5 -14 0 -19 -2 -12 -5z"/>
<path d="M9310 8970 c-8 -5 -10 -10 -5 -10 6 0 17 5 25 10 8 5 11 10 5 10 -5
0 -17 -5 -25 -10z"/>
<path d="M9538 8973 c7 -3 16 -2 19 1 4 3 -2 6 -13 5 -11 0 -14 -3 -6 -6z"/>
<path d="M11398 8973 c12 -2 32 -2 45 0 12 2 2 4 -23 4 -25 0 -35 -2 -22 -4z"/>
<path d="M9460 8950 c-17 -13 -20 -20 -10 -20 17 0 50 19 35 21 -5 0 -1 4 10
9 13 6 15 9 5 9 -8 0 -26 -8 -40 -19z"/>
<path d="M10170 8946 c0 -7 10 -16 23 -19 20 -6 21 -5 4 8 -18 13 -18 13 0 18
14 4 14 5 -4 6 -14 1 -23 -5 -23 -13z"/>
<path d="M9578 8943 c6 -2 18 -2 25 0 6 3 1 5 -13 5 -14 0 -19 -2 -12 -5z"/>
<path d="M9640 8946 c0 -10 28 -13 41 -5 10 6 7 9 -13 9 -16 0 -28 -2 -28 -4z"/>
<path d="M9496 8931 c-8 -13 11 -18 45 -13 16 2 26 8 23 13 -7 12 -61 12 -68
0z"/>
<path d="M9180 8926 c0 -2 7 -7 16 -10 8 -3 12 -2 9 4 -6 10 -25 14 -25 6z"/>
<path d="M9230 8920 c-8 -5 -12 -12 -9 -15 4 -3 12 1 19 10 14 17 11 19 -10 5z"/>
<path d="M9328 8918 c4 -4 30 -3 57 1 l50 9 -57 -1 c-32 -1 -54 -5 -50 -9z"/>
<path d="M11088 8923 c7 -3 16 -2 19 1 4 3 -2 6 -13 5 -11 0 -14 -3 -6 -6z"/>
<path d="M11628 8923 c7 -3 16 -2 19 1 4 3 -2 6 -13 5 -11 0 -14 -3 -6 -6z"/>
<path d="M10227 8909 c7 -7 15 -10 18 -7 3 3 -2 9 -12 12 -14 6 -15 5 -6 -5z"/>
<path d="M11378 8913 c7 -3 16 -2 19 1 4 3 -2 6 -13 5 -11 0 -14 -3 -6 -6z"/>
<path d="M11118 8903 c23 -2 59 -2 80 0 20 2 1 4 -43 4 -44 0 -61 -2 -37 -4z"/>
<path d="M11348 8893 c7 -3 16 -2 19 1 4 3 -2 6 -13 5 -11 0 -14 -3 -6 -6z"/>
<path d="M10250 8880 c0 -6 7 -10 15 -10 8 0 15 2 15 4 0 2 -7 6 -15 10 -8 3
-15 1 -15 -4z"/>
<path d="M9160 8870 c-13 -8 -13 -10 2 -10 9 0 20 5 23 10 8 13 -5 13 -25 0z"/>
<path d="M11055 8870 l-40 -7 48 -2 c26 0 47 4 47 9 0 6 -3 9 -7 9 -5 -1 -26
-5 -48 -9z"/>
<path d="M11378 8863 c6 -2 18 -2 25 0 6 3 1 5 -13 5 -14 0 -19 -2 -12 -5z"/>
<path d="M9085 8840 c3 -5 1 -10 -6 -10 -7 0 -10 -2 -7 -5 7 -8 38 5 38 16 0
5 -7 9 -16 9 -8 0 -12 -4 -9 -10z"/>
<path d="M11055 8832 c-16 -1 -39 -7 -50 -12 -11 -5 -27 -11 -35 -14 -8 -4 13
-4 48 -2 35 2 66 7 69 9 12 13 -4 22 -32 19z"/>
<path d="M11198 8823 c7 -3 16 -2 19 1 4 3 -2 6 -13 5 -11 0 -14 -3 -6 -6z"/>
<path d="M9034 8794 c-18 -14 -18 -15 4 -4 12 6 22 13 22 15 0 8 -5 6 -26 -11z"/>
<path d="M8396 8745 c-11 -30 -7 -77 7 -73 15 6 21 52 9 74 -8 15 -10 15 -16
-1z"/>
<path d="M9545 8730 c-22 -4 -51 -12 -65 -16 -40 -14 -280 -185 -280 -201 0
-26 54 -1 147 68 51 38 94 69 95 69 2 0 3 -31 3 -69 0 -68 0 -68 -23 -60 -13
5 -39 9 -58 9 -52 0 -38 -23 18 -31 25 -4 55 -12 67 -19 38 -20 126 -39 208
-45 86 -7 160 5 393 65 77 20 74 18 59 37 -12 14 -11 15 8 9 12 -4 24 -2 27 3
14 22 -235 156 -324 174 -63 12 -227 17 -275 7z m175 -39 c0 -24 -23 -43 -44
-35 -9 4 -16 3 -14 -2 3 -10 -5 -14 -27 -14 -22 0 -18 25 8 43 l22 16 -27 0
c-15 1 -38 -3 -52 -9 -24 -9 -34 -2 -19 13 3 4 39 7 80 7 65 0 73 -2 73 -19z
m100 0 c25 -6 80 -26 123 -45 61 -28 77 -40 79 -58 1 -28 -1 -61 -6 -65 -11
-12 -259 -63 -304 -63 l-26 0 31 33 c54 55 68 128 37 188 -15 29 -14 30 3 25
10 -3 38 -10 63 -15z m-270 5 c0 -2 -7 -6 -15 -10 -8 -3 -15 -1 -15 4 0 6 7
10 15 10 8 0 15 -2 15 -4z m190 -103 c-1 -29 -80 -54 -80 -26 0 9 8 11 25 7
19 -5 25 -2 25 10 0 9 7 16 15 16 8 0 15 -3 15 -7z m-120 -23 c0 -5 -7 -7 -15
-4 -8 4 -15 8 -15 10 0 2 7 4 15 4 8 0 15 -4 15 -10z m-60 -83 c36 -11 59 -15
98 -16 12 -1 22 -5 22 -9 0 -15 -200 25 -218 43 -7 7 54 -4 98 -18z"/>
<path d="M7636 8709 c-54 -43 -9 -89 54 -56 30 15 33 47 5 64 -27 16 -28 16
-59 -8z"/>
<path d="M7737 8693 c-4 -3 -7 -14 -7 -23 0 -22 -29 -47 -60 -52 -21 -2 -25
-8 -23 -33 1 -16 7 -31 13 -33 5 -2 10 -18 10 -36 0 -18 4 -36 9 -41 17 -17
17 -79 1 -92 -18 -14 -20 -107 -2 -125 8 -8 8 -17 0 -31 -6 -12 -8 -50 -6 -92
4 -54 11 -82 33 -118 33 -57 81 -107 102 -107 21 0 12 18 -41 87 -54 69 -68
124 -54 208 6 30 7 68 2 83 -4 15 -6 32 -4 37 2 6 4 21 6 35 1 14 6 36 11 50
6 14 14 40 17 57 4 18 12 35 17 38 17 11 9 36 -13 45 -13 5 -17 9 -10 9 6 1
12 13 12 27 0 17 6 28 20 31 16 4 19 11 14 32 -10 42 -31 61 -47 44z"/>
<path d="M11075 8665 c-22 -13 -47 -28 -55 -31 -8 -4 -33 -22 -55 -39 -22 -18
-48 -35 -57 -38 -22 -8 -23 -35 -2 -65 13 -19 24 -22 90 -22 42 0 110 -9 152
-19 122 -31 268 -28 377 9 22 7 46 15 54 17 9 2 2 15 -23 40 -20 20 -36 41
-37 47 0 6 -21 26 -47 45 -107 79 -313 108 -397 56z m65 -15 c0 -5 -9 -10 -19
-10 -11 0 -23 -4 -26 -10 -7 -12 -25 -13 -25 -2 0 8 38 29 58 31 6 0 12 -3 12
-9z m154 4 c20 -8 21 -24 2 -24 -8 0 -17 -12 -20 -26 -9 -34 -20 -23 -22 22
-1 34 8 40 40 28z m-65 -39 c2 -13 -1 -16 -14 -12 -9 4 -14 3 -10 -3 3 -6 1
-10 -4 -10 -12 0 -15 33 -4 44 11 11 28 1 32 -19z m231 -36 c20 -16 43 -42 52
-57 l17 -29 -37 -11 c-20 -6 -52 -14 -69 -17 -18 -3 -46 -8 -63 -11 -19 -4
-30 -2 -30 5 0 6 4 11 9 11 12 0 29 47 37 103 6 43 9 47 28 41 11 -4 37 -20
56 -35z m-428 -12 c-2 -14 2 -35 8 -46 10 -20 8 -21 -33 -21 -40 0 -45 3 -49
25 -4 19 2 30 26 49 37 30 52 28 48 -7z m278 -97 c0 -5 -14 -10 -31 -10 -17 0
-28 4 -24 10 3 6 17 10 31 10 13 0 24 -4 24 -10z"/>
<path d="M12092 8470 c0 -14 2 -19 5 -12 2 6 2 18 0 25 -3 6 -5 1 -5 -13z"/>
<path d="M11892 8430 c0 -14 2 -19 5 -12 2 6 2 18 0 25 -3 6 -5 1 -5 -13z"/>
<path d="M11891 8374 c0 -11 3 -14 6 -6 3 7 2 16 -1 19 -3 4 -6 -2 -5 -13z"/>
<path d="M10454 7445 c-8 -20 2 -32 33 -39 16 -3 58 -14 94 -24 77 -22 113
-22 117 -1 2 10 -23 25 -80 47 -89 35 -155 42 -164 17z"/>
<path d="M8366 7099 c-8 -40 -8 -163 0 -183 14 -37 24 2 24 99 0 103 -12 144
-24 84z"/>
<path d="M10577 7075 c-21 -25 -42 -45 -47 -45 -5 0 -12 16 -16 35 -9 49 -23
40 -44 -28 -17 -54 -38 -92 -47 -84 -2 2 4 20 12 40 17 40 20 97 6 97 -5 0
-22 -21 -38 -46 -15 -25 -43 -63 -61 -85 -19 -21 -31 -43 -27 -49 7 -12 62 -4
81 11 6 5 15 4 20 -1 19 -19 74 1 89 31 8 15 24 30 34 34 23 7 81 91 81 117 0
10 -1 18 -3 18 -1 0 -20 -20 -40 -45z"/>
<path d="M10790 7085 c0 -30 87 -127 139 -155 28 -14 56 -6 44 13 -14 24 -156
147 -170 147 -7 0 -13 -2 -13 -5z"/>
<path d="M10198 7020 c-49 -22 -92 -40 -96 -40 -13 0 -112 -97 -112 -110 0 -6
16 -18 36 -26 36 -15 39 -14 101 16 35 18 67 39 71 48 3 9 30 41 59 70 51 53
66 82 41 82 -7 0 -52 -18 -100 -40z"/>
<path d="M10696 7012 c-3 -2 -26 -8 -52 -13 -50 -10 -94 -33 -94 -50 0 -18 32
-23 45 -6 6 9 16 12 24 8 7 -5 33 -4 58 0 26 5 62 5 86 -1 52 -12 59 -12 76
-1 21 14 -4 48 -41 57 -42 9 -96 12 -102 6z"/>
<path d="M11338 6983 c6 -2 18 -2 25 0 6 3 1 5 -13 5 -14 0 -19 -2 -12 -5z"/>
<path d="M10020 6970 c0 -5 5 -10 10 -10 6 0 10 5 10 10 0 6 -4 10 -10 10 -5
0 -10 -4 -10 -10z"/>
<path d="M9931 6944 c-11 -14 -23 -34 -26 -44 -4 -11 -12 -16 -24 -13 -21 5
-101 -32 -101 -47 0 -15 17 -12 58 9 22 11 48 17 64 14 22 -4 30 1 47 28 22
35 28 79 12 79 -5 0 -19 -12 -30 -26z"/>
<path d="M11024 6957 c-8 -23 11 -53 52 -78 30 -18 38 -19 45 -8 14 22 10 37
-11 44 -11 4 -34 18 -50 32 -25 20 -31 22 -36 10z"/>
<path d="M9574 6878 c-27 -18 -53 -33 -59 -34 -5 -1 -15 -2 -21 -3 -7 0 -14
-10 -17 -21 -3 -11 -22 -27 -44 -36 -21 -9 -49 -24 -63 -34 -14 -9 -50 -25
-80 -35 -30 -9 -61 -23 -69 -30 -20 -19 -3 -38 27 -30 45 11 175 75 199 97 16
15 26 18 35 10 14 -11 78 9 78 25 0 5 22 31 49 58 71 72 52 89 -35 33z"/>
<path d="M10962 6889 c-29 -5 -69 -16 -90 -25 -57 -24 -234 -35 -312 -19 -36
7 -59 13 -52 14 17 1 15 31 -2 31 -8 0 -21 -7 -30 -15 -8 -8 -30 -15 -48 -14
-27 0 -29 2 -13 8 11 5 26 6 34 3 9 -3 12 -1 7 6 -9 15 -72 15 -134 1 -149
-33 -160 -37 -141 -50 9 -6 -3 -9 -33 -9 -37 0 -48 -4 -53 -19 -4 -14 -15 -18
-45 -17 -76 2 -94 -56 -24 -76 16 -5 43 -15 59 -22 38 -16 91 -35 130 -46 17
-5 60 -20 97 -33 119 -44 437 -42 583 3 78 24 111 51 161 127 27 42 32 58 27
87 -4 25 -11 36 -23 36 -10 0 -20 9 -23 20 -3 11 -9 19 -14 19 -4 -1 -32 -5
-61 -10z m53 -29 c3 -5 -3 -15 -15 -22 -11 -7 -20 -18 -20 -25 0 -7 -7 -13
-15 -13 -8 0 -15 -9 -15 -19 0 -35 -41 -70 -88 -75 -24 -3 -49 -10 -56 -15
-11 -10 -28 -11 -176 -13 -79 -1 -154 9 -158 22 -2 5 -13 5 -29 -1 -20 -7 -30
-6 -43 6 -9 8 -24 15 -33 15 -8 0 -22 6 -29 13 -7 8 -27 18 -43 24 -33 11 -47
43 -19 43 10 0 46 7 81 16 55 14 75 14 146 3 45 -7 111 -12 147 -11 36 1 90 2
120 2 30 1 69 7 85 14 35 15 125 44 142 45 6 1 15 -3 18 -9z m-720 -20 c-3 -5
-16 -10 -28 -9 -21 0 -21 1 -2 9 28 12 37 12 30 0z m-62 -17 c-7 -2 -19 -2
-25 0 -7 3 -2 5 12 5 14 0 19 -2 13 -5z"/>
<path d="M9650 6808 c-47 -25 -76 -47 -78 -59 -4 -24 17 -33 49 -20 29 12 119
95 119 110 0 16 -7 14 -90 -31z"/>
<path d="M11625 6836 c-20 -15 -20 -15 2 -31 12 -8 23 -28 25 -43 2 -20 9 -28
27 -30 22 -3 23 -2 16 37 l-7 41 41 0 c23 0 41 5 41 10 0 11 -7 13 -60 15 -19
1 -42 5 -50 9 -9 3 -24 0 -35 -8z"/>
<path d="M11596 6643 c-9 -26 -16 -67 -17 -92 l-1 -46 -10 40 c-17 70 -19 72
-34 25 -19 -63 -18 -154 2 -171 14 -11 18 -10 30 6 13 17 14 17 20 -13 5 -22
12 -32 25 -32 26 0 34 37 34 165 0 164 -18 208 -49 118z"/>
<path d="M8507 6609 c13 -13 28 -19 38 -15 27 10 11 31 -26 34 l-34 3 22 -22z"/>
<path d="M8386 6525 c-4 -19 -15 -39 -25 -45 -25 -13 -31 -44 -15 -75 7 -14
14 -56 16 -93 3 -73 4 -73 69 -57 23 6 26 3 35 -32 7 -29 15 -39 33 -41 26 -4
25 -11 5 89 -4 17 -12 33 -20 36 -7 2 -16 26 -20 51 -4 25 -15 60 -25 77 -11
16 -19 41 -19 55 0 34 -11 70 -20 70 -4 0 -11 -16 -14 -35z"/>
<path d="M8612 6548 c-14 -14 -16 -64 -3 -72 17 -11 44 32 37 59 -7 28 -16 31
-34 13z"/>
<path d="M8310 6542 c0 -19 12 -42 22 -42 14 0 5 43 -9 48 -7 2 -13 -1 -13 -6z"/>
<path d="M8950 6376 c-8 -16 -13 -63 -13 -130 0 -97 1 -108 21 -127 12 -11 22
-24 22 -29 0 -21 30 -9 50 20 12 17 30 30 40 30 9 0 20 9 23 20 3 11 11 20 17
20 9 0 11 -13 8 -45 -7 -54 19 -95 58 -95 15 0 24 -6 24 -15 0 -21 29 -19 37
3 4 9 16 25 28 34 16 14 17 17 4 18 -9 0 -22 -7 -29 -15 -12 -14 -16 -13 -39
8 -14 14 -36 30 -48 36 -30 16 -31 69 -2 94 16 14 18 21 9 32 -14 17 17 76 59
112 14 13 21 23 14 23 -6 0 -29 -21 -50 -46 -55 -68 -105 -114 -122 -114 -8 0
-23 -8 -33 -17 -28 -25 -38 -3 -38 87 0 114 -13 145 -40 96z"/>
<path d="M11671 6356 c-7 -9 -16 -36 -19 -61 -4 -37 -2 -45 11 -45 21 0 42 75
30 103 -8 17 -10 18 -22 3z"/>
<path d="M11506 6353 c-9 -9 -7 -33 3 -33 12 0 22 28 12 34 -5 3 -11 3 -15 -1z"/>
<path d="M10847 6306 c-3 -8 -9 -46 -13 -85 -5 -51 -3 -71 5 -71 18 0 31 45
31 105 0 52 -12 79 -23 51z"/>
<path d="M8340 6142 c0 -29 24 -72 40 -72 5 0 12 11 16 25 5 20 0 31 -20 50
-34 31 -36 31 -36 -3z"/>
<path d="M8900 6156 c0 -8 5 -18 10 -21 6 -3 10 3 10 14 0 12 -4 21 -10 21 -5
0 -10 -6 -10 -14z"/>
<path d="M11288 6108 c-45 -59 -52 -78 -35 -95 20 -20 35 -9 58 41 20 44 25
86 10 86 -5 0 -20 -15 -33 -32z"/>
<path d="M11585 6088 c-2 -7 -8 -33 -13 -58 -6 -25 -17 -70 -25 -100 -33 -123
-30 -280 6 -302 20 -12 10 -88 -17 -127 -31 -45 -34 -60 -17 -90 13 -23 12
-58 -5 -138 -5 -26 -3 -33 9 -33 21 0 37 52 37 123 0 42 6 69 20 92 29 46 54
237 45 335 -4 41 -9 118 -10 170 -1 52 -3 105 -4 118 -1 23 -19 30 -26 10z"/>
<path d="M9530 6065 c-15 -40 -12 -74 10 -97 16 -18 23 -19 33 -9 9 10 9 15
-5 25 -13 9 -15 22 -11 53 6 48 -12 67 -27 28z"/>
<path d="M9652 6048 c2 -21 8 -33 18 -33 19 0 25 32 10 50 -20 24 -31 17 -28
-17z"/>
<path d="M8422 5874 c4 -21 22 -23 26 -1 2 10 -3 17 -13 17 -10 0 -15 -6 -13
-16z"/>
<path d="M8612 5853 c4 -36 33 -39 33 -3 0 16 -6 26 -18 28 -15 3 -18 -2 -15
-25z"/>
<path d="M8511 5816 c-18 -21 -6 -50 35 -85 60 -53 70 -37 26 43 -30 55 -43
64 -61 42z"/>
<path d="M11207 5783 c-18 -21 -24 -59 -13 -90 11 -33 29 -29 22 5 -5 20 0 36
19 62 14 18 25 35 25 37 0 11 -40 0 -53 -14z"/>
<path d="M9984 5749 c-15 -29 -15 -36 1 -86 13 -40 21 -53 34 -51 17 4 18 18
6 106 -4 29 -12 55 -16 58 -4 2 -16 -10 -25 -27z"/>
<path d="M11000 5750 c-6 -12 -10 -31 -8 -43 2 -18 9 -22 32 -20 44 3 53 18
30 50 -27 35 -40 39 -54 13z"/>
<path d="M8804 5728 c3 -18 6 -72 5 -120 0 -80 10 -114 26 -87 8 13 7 202 -1
224 -4 8 -13 15 -21 15 -12 0 -14 -8 -9 -32z"/>
<path d="M9800 5662 c0 -66 72 -227 117 -261 15 -11 36 -28 45 -37 9 -9 25
-14 35 -12 37 7 23 68 -16 68 -23 0 -104 86 -130 137 -11 22 -23 60 -27 82 -8
49 -24 65 -24 23z"/>
<path d="M8652 5643 c2 -17 10 -29 21 -31 15 -3 18 2 15 25 -2 17 -10 29 -21
31 -15 3 -18 -2 -15 -25z"/>
<path d="M11036 5638 c-3 -7 -7 -61 -11 -120 -5 -93 -4 -108 9 -108 9 0 20 15
26 38 15 49 9 194 -7 200 -7 2 -15 -2 -17 -10z"/>
<path d="M9056 5581 c-14 -23 -17 -99 -4 -135 16 -48 51 -74 103 -78 34 -3 40
0 40 16 0 14 -12 22 -46 32 -51 15 -53 18 -64 117 -7 53 -16 69 -29 48z"/>
<path d="M9475 5566 c-8 -29 1 -203 11 -231 4 -9 15 -15 28 -13 19 3 21 10 24
81 3 76 -2 89 -26 65 -9 -9 -12 -1 -13 38 0 27 -4 58 -9 69 -7 18 -8 17 -15
-9z"/>
<path d="M9570 5524 c-7 -16 -7 -31 -2 -36 6 -6 14 3 20 21 14 39 -4 53 -18
15z"/>
<path d="M11256 5470 c-41 -45 -45 -60 -17 -60 23 0 71 54 71 81 0 29 -14 23
-54 -21z"/>
<path d="M10332 5448 c6 -18 28 -21 28 -4 0 9 -7 16 -16 16 -9 0 -14 -5 -12
-12z"/>
<path d="M10495 5439 c-9 -36 -2 -139 10 -142 13 -3 19 128 6 150 -8 16 -10
15 -16 -8z"/>
<path d="M8803 5403 c-7 -19 29 -53 58 -53 23 0 23 3 4 40 -17 33 -52 40 -62
13z"/>
<path d="M11337 5356 c-31 -28 -57 -54 -57 -58 0 -5 10 -8 23 -8 36 0 122 99
99 114 -4 2 -33 -19 -65 -48z"/>
<path d="M8900 5334 c0 -8 5 -12 10 -9 6 3 10 10 10 16 0 5 -4 9 -10 9 -5 0
-10 -7 -10 -16z"/>
<path d="M10132 5259 c9 -27 138 -54 138 -29 0 15 -31 27 -89 35 -43 6 -53 5
-49 -6z"/>
<path d="M9994 5246 c-4 -9 -1 -29 7 -44 l13 -27 4 34 c4 38 -13 65 -24 37z"/>
<path d="M9001 5194 c0 -11 3 -14 6 -6 3 7 2 16 -1 19 -3 4 -6 -2 -5 -13z"/>
<path d="M11281 5130 c-51 -38 -108 -84 -125 -103 -17 -19 -46 -42 -63 -51
-37 -18 -44 -46 -13 -46 11 0 38 11 60 25 22 14 44 25 49 25 6 0 27 19 48 42
21 23 62 66 91 96 28 30 52 60 52 68 0 18 11 24 -99 -56z"/>
<path d="M11464 5129 c-16 -17 -48 -44 -71 -60 -47 -33 -54 -49 -23 -49 45 0
120 60 134 107 11 34 -8 35 -40 2z"/>
<path d="M9460 5106 c0 -14 5 -28 10 -31 6 -4 10 7 10 24 0 17 -4 31 -10 31
-5 0 -10 -11 -10 -24z"/>
<path d="M9986 5105 c-13 -34 34 -94 86 -111 37 -12 41 12 5 34 -18 12 -42 37
-53 57 -20 38 -29 43 -38 20z"/>
<path d="M9275 5071 c-17 -29 29 -121 61 -121 8 0 14 8 14 18 0 26 -66 117
-75 103z"/>
<path d="M10352 5070 c8 -25 54 -52 83 -48 27 3 27 3 9 26 -22 26 -100 45 -92
22z"/>
<path d="M10155 5020 c-10 -16 74 -50 123 -50 36 0 43 3 40 17 -2 11 -17 20
-38 24 -83 16 -119 19 -125 9z"/>
<path d="M9430 4915 c0 -19 24 -30 47 -21 19 8 9 21 -24 31 -17 5 -23 2 -23
-10z"/>
<path d="M9730 4902 c0 -5 6 -17 14 -27 8 -11 12 -25 9 -32 -7 -18 16 -24 51
-15 l28 8 -41 37 c-40 36 -61 46 -61 29z"/>
<path d="M10620 4800 c20 -13 40 -13 40 0 0 6 -12 10 -27 10 -22 0 -25 -2 -13
-10z"/>
<path d="M10734 4795 c-8 -21 2 -45 19 -45 20 0 40 27 33 45 -7 19 -45 20 -52
0z"/>
<path d="M10845 4757 c-13 -10 -16 -21 -11 -40 8 -33 28 -34 56 -5 20 22 28
54 11 43 -5 -3 -12 -1 -16 5 -8 13 -18 13 -40 -3z"/>
<path d="M10237 4580 c24 -26 203 -53 203 -31 0 23 -38 35 -123 39 -72 3 -89
1 -80 -8z"/>
</g>
</svg>
