<?xml version="1.0" standalone="no"?>
<!DOCTYPE svg PUBLIC "-//W3C//DTD SVG 20010904//EN"
 "http://www.w3.org/TR/2001/REC-SVG-20010904/DTD/svg10.dtd">
<svg version="1.0" xmlns="http://www.w3.org/2000/svg"
 width="2048.000000pt" height="1536.000000pt" viewBox="0 0 2048.000000 1536.000000"
 preserveAspectRatio="xMidYMid meet">

<g transform="translate(0.000000,1536.000000) scale(0.100000,-0.100000)"
fill="#000000" stroke="none">
<path d="M4805 10299 c-72 -38 -87 -50 -77 -62 5 -7 12 -25 16 -42 8 -33 26
-246 24 -285 0 -14 0 -36 0 -50 1 -14 1 -73 1 -133 0 -94 2 -110 21 -134 19
-24 20 -29 6 -39 -24 -17 -23 -259 1 -272 16 -9 16 -12 -1 -36 -15 -23 -18
-58 -21 -231 -2 -112 -5 -208 -8 -212 -2 -4 -8 -33 -11 -65 -8 -65 1 -77 41
-51 15 10 41 23 57 28 l31 10 -2 123 c-1 97 -5 128 -18 149 -16 24 -16 27 -1
38 13 10 16 31 16 107 0 93 0 94 33 125 17 18 57 43 87 57 47 22 69 26 154 26
80 0 107 -4 146 -22 27 -12 53 -32 58 -43 13 -29 14 -150 1 -198 -7 -28 -7
-42 2 -53 8 -10 9 -30 4 -67 -5 -28 -9 -79 -10 -112 -1 -33 -8 -81 -15 -108
-13 -42 -12 -49 2 -63 14 -15 18 -15 42 1 15 10 41 21 59 24 l32 7 2 172 c1
101 -2 174 -7 177 -6 4 -6 14 1 26 5 11 7 28 4 39 -3 10 -1 21 4 24 5 4 13 31
16 60 8 61 -8 126 -31 126 -8 0 -14 7 -12 15 2 8 -19 33 -46 55 -44 37 -53 40
-107 40 -32 0 -70 -5 -83 -12 -22 -9 -29 -8 -45 6 -17 16 -26 16 -68 6 -26 -6
-59 -14 -73 -17 -14 -3 -53 -25 -87 -49 -34 -24 -63 -44 -65 -44 -2 0 -2 89
-1 197 1 132 -2 206 -9 221 -9 17 -9 31 -1 55 7 18 12 78 13 135 1 100 0 103
-20 97 -16 -5 -20 -2 -20 18 0 14 9 31 19 38 16 12 20 32 26 117 l7 102 -24 0
c-13 -1 -41 -10 -63 -21z"/>
<path d="M15375 10168 c-389 -28 -684 -162 -839 -382 -78 -110 -124 -224 -150
-370 -19 -106 -30 -282 -19 -289 5 -3 10 32 12 80 6 244 88 462 228 614 168
180 419 284 753 311 123 9 164 9 271 -5 134 -18 273 -54 354 -92 l50 -23 -35
-1 c-123 -4 -359 -17 -560 -32 -383 -28 -637 -103 -770 -228 -52 -49 -119
-177 -195 -371 -51 -129 -65 -206 -74 -404 -7 -146 -6 -183 10 -264 21 -110
20 -107 64 -111 9 -1 15 -11 15 -27 0 -14 8 -42 19 -62 46 -92 51 -104 45
-113 -5 -8 18 -39 29 -39 9 0 47 71 47 86 0 8 4 14 8 14 5 0 6 -14 4 -31 -6
-41 20 -35 29 7 17 79 2 124 -23 69 -7 -17 -14 -21 -19 -14 -4 8 -9 4 -14 -11
-5 -16 -9 -19 -15 -10 -5 8 -10 2 -15 -19 -9 -41 -25 -40 -25 3 0 29 5 36 30
45 23 7 30 16 30 35 0 14 5 28 10 31 6 4 10 3 9 -2 -3 -17 1 -33 9 -33 5 0 15
31 22 68 11 62 11 71 -5 95 -17 27 -13 85 7 98 17 11 23 100 7 110 -20 13 -39
11 -39 -3 0 -7 -11 -14 -23 -14 -20 -1 -23 2 -19 23 3 15 8 20 12 14 10 -17
40 -2 40 19 0 28 -19 35 -35 14 -12 -16 -14 -16 -15 -3 0 30 170 178 303 263
76 49 237 129 323 162 76 28 284 76 409 94 159 22 377 8 495 -32 19 -7 38 -12
42 -13 3 0 10 -4 15 -9 5 -6 2 -6 -7 -1 -13 8 -13 7 -1 -8 14 -18 22 -22 20
-9 -1 4 -1 10 0 15 2 12 153 -69 191 -102 64 -57 72 -66 109 -120 20 -30 41
-56 47 -58 6 -2 43 29 81 69 214 222 300 335 387 503 54 105 53 107 -42 171
-122 84 -319 120 -692 127 -129 2 -150 5 -181 24 -102 64 -327 129 -474 138
-49 3 -101 7 -115 9 -14 1 -74 -1 -135 -6z m-792 -1243 c-3 -9 -8 -14 -10 -11
-3 3 -2 9 2 15 9 16 15 13 8 -4z m-38 -56 c-5 -13 -2 -25 6 -30 7 -4 10 -11 6
-15 -13 -14 -36 29 -26 48 13 25 22 22 14 -3z m40 -9 c-3 -5 -12 -10 -18 -10
-7 0 -6 4 3 10 19 12 23 12 15 0z m71 -16 c-4 -9 -9 -15 -11 -12 -3 3 -3 13 1
22 4 9 9 15 11 12 3 -3 3 -13 -1 -22z m-41 -35 c-6 -28 9 -42 18 -16 2 6 2 3
0 -8 -8 -35 -4 -66 12 -81 17 -17 18 -29 5 -59 -8 -18 -9 -17 -9 7 -1 15 -9
35 -19 45 -11 10 -22 27 -26 38 -8 19 -8 19 -17 -4 -13 -32 -23 -20 -14 18 6
27 8 29 21 16 19 -19 24 -19 24 1 0 9 -9 18 -20 21 -21 6 -29 25 -8 21 7 -2
14 7 16 20 2 12 8 20 13 16 6 -3 7 -19 4 -35z m-75 -18 c0 -11 4 -22 8 -25 11
-6 2 -76 -9 -76 -5 0 -9 7 -9 16 0 14 -2 15 -17 3 -15 -12 -16 -12 -10 4 4 10
7 28 8 40 0 21 1 21 11 -3 9 -20 12 -22 15 -8 2 9 -1 26 -6 37 -14 25 -14 31
-1 31 6 0 10 -9 10 -19z m-59 -47 c-5 -16 -10 -21 -10 -12 -1 18 10 51 15 45
2 -1 -1 -16 -5 -33z m13 -60 c9 -3 16 -10 16 -16 0 -5 -4 -7 -9 -4 -5 4 -11 1
-13 -6 -3 -7 -7 -2 -10 10 -7 24 -6 25 16 16z m59 -26 c-34 -34 -53 -34 -32 0
7 11 19 18 26 15 7 -3 13 0 13 6 0 6 6 11 12 11 7 0 -2 -14 -19 -32z m-74 -30
c1 -5 -3 -8 -9 -8 -5 0 -10 12 -9 28 0 24 1 25 9 7 5 -11 9 -23 9 -27z m86 -8
c-13 -26 -19 -29 -31 -19 -11 9 -14 8 -14 -9 0 -11 7 -25 15 -32 12 -10 15
-10 15 4 0 9 5 16 10 16 13 0 13 -6 -5 -40 -21 -40 -31 -38 -38 8 -3 20 -8 45
-12 55 -5 12 -2 17 8 17 8 0 25 9 38 19 31 25 34 20 14 -19z m69 -5 c3 -8 1
-15 -4 -15 -6 0 -10 7 -10 15 0 8 2 15 4 15 2 0 6 -7 10 -15z m-24 -66 c0 -11
-7 -22 -15 -26 -21 -8 -24 -3 -18 29 6 31 33 28 33 -3z"/>
<path d="M14611 8724 c0 -11 3 -14 6 -6 3 7 2 16 -1 19 -3 4 -6 -2 -5 -13z"/>
<path d="M11653 9811 c-65 -70 -89 -111 -65 -111 8 0 70 43 146 100 35 27 45
41 43 60 -1 19 -8 26 -27 28 -20 2 -40 -14 -97 -77z"/>
<path d="M13778 9877 c-8 -7 -45 -44 -82 -84 -48 -50 -67 -77 -62 -89 5 -14 9
-14 38 4 38 24 123 89 150 115 14 13 16 22 9 36 -14 25 -36 32 -53 18z"/>
<path d="M3585 9836 c-40 -18 -95 -71 -95 -90 0 -12 10 -16 39 -16 22 0 43 5
47 11 12 20 439 -2 461 -25 2 -2 -6 -20 -18 -40 l-21 -37 17 -122 c9 -67 17
-133 17 -147 -1 -14 0 -77 0 -140 0 -63 1 -131 1 -150 0 -19 -5 -87 -11 -150
-16 -157 -15 -250 1 -251 31 -3 53 5 88 33 l38 31 -6 66 c-3 36 -12 73 -19 82
-18 20 -18 48 0 55 18 7 21 246 3 282 -8 16 -8 25 1 34 8 8 7 14 -6 24 -16 12
-16 14 1 42 10 18 17 51 17 81 0 37 -5 53 -17 60 -17 10 -17 12 -1 24 14 11
18 35 22 113 3 54 5 100 5 102 2 5 260 0 312 -7 48 -6 64 -3 115 20 55 25 97
69 82 85 -3 3 -30 -2 -59 -10 -31 -9 -91 -15 -139 -15 -87 1 -153 -7 -179 -21
-8 -5 -26 -3 -40 3 -15 6 -55 14 -91 18 -109 13 -282 39 -338 51 -40 9 -62 9
-83 1 -23 -9 -32 -8 -43 3 -18 18 -62 17 -101 0z"/>
<path d="M10194 9780 c-21 -16 -44 -30 -50 -30 -25 0 -32 -25 -23 -85 5 -33
10 -80 10 -105 0 -27 7 -52 17 -63 16 -18 16 -20 -1 -32 -24 -17 -22 -45 4
-45 12 0 19 -5 16 -12 -2 -7 -11 -12 -21 -10 -14 3 -16 -13 -15 -150 1 -84 5
-160 9 -168 5 -9 2 -23 -6 -35 -9 -12 -14 -46 -15 -94 -1 -100 -14 -242 -23
-263 -16 -36 22 -30 78 12 46 33 56 46 56 70 0 20 -5 30 -15 30 -19 0 -20 39
-1 46 11 4 14 42 16 187 2 100 2 192 1 205 -1 27 -1 48 4 135 5 106 38 125 70
40 10 -26 31 -60 46 -76 17 -17 29 -41 29 -56 0 -31 112 -266 142 -298 13 -14
19 -30 15 -43 -3 -12 8 -49 29 -90 19 -39 34 -74 34 -79 0 -4 14 -22 30 -39
17 -18 30 -38 30 -46 0 -7 6 -19 14 -25 22 -18 52 2 76 49 11 22 25 40 30 40
6 0 10 10 10 21 0 12 16 39 35 60 19 21 45 60 59 86 13 26 44 82 69 124 24 41
47 84 51 95 3 11 16 31 27 43 12 12 30 48 41 79 19 54 59 133 80 160 6 7 11
22 12 35 1 12 7 22 16 22 15 0 19 -19 35 -155 3 -25 7 -126 10 -225 2 -99 7
-191 10 -206 4 -15 1 -73 -5 -129 -6 -56 -9 -105 -6 -108 3 -3 16 0 29 6 12 6
31 13 43 17 38 10 58 63 50 136 -3 35 -9 102 -11 149 -3 47 -10 109 -15 139
-6 30 -10 93 -10 139 0 69 -3 87 -17 98 -17 12 -17 14 0 47 15 28 18 55 17
153 0 65 2 133 6 151 5 28 3 32 -17 35 -20 2 -24 8 -23 36 2 41 -11 41 -68 -3
-56 -44 -94 -115 -78 -146 10 -18 8 -23 -10 -36 -16 -11 -20 -22 -16 -38 4
-15 0 -30 -11 -41 -21 -20 -73 -140 -73 -167 0 -10 -8 -30 -17 -44 -10 -14
-36 -68 -60 -120 -23 -51 -64 -133 -92 -181 -51 -89 -130 -177 -138 -155 -2 7
-15 28 -28 47 -13 19 -26 43 -29 54 -4 11 -13 26 -21 32 -8 7 -15 20 -15 29
-1 19 -49 75 -73 84 -12 5 -15 14 -11 35 6 31 -28 112 -47 112 -6 0 -9 10 -7
21 2 13 -5 26 -17 33 -29 16 -35 28 -23 43 13 16 5 50 -29 125 -14 32 -34 60
-44 63 -11 4 -19 9 -20 13 0 4 -1 27 -3 51 -1 28 -9 48 -20 57 -13 9 -17 20
-12 38 7 27 -19 95 -41 109 -7 4 -13 15 -13 22 0 23 -23 18 -66 -15z"/>
<path d="M6060 9444 c-162 -44 -312 -155 -372 -277 -39 -78 -55 -173 -33 -197
12 -13 13 -23 5 -44 -10 -28 -3 -48 44 -122 25 -40 112 -104 140 -104 12 0 26
-4 31 -9 23 -21 109 -28 233 -19 116 8 136 13 222 50 110 47 153 87 200 182
37 75 47 129 30 161 -11 20 -10 26 4 41 14 13 16 27 10 73 -8 72 -38 141 -60
141 -9 0 -39 22 -66 50 -55 56 -117 82 -143 60 -13 -11 -19 -10 -36 8 -17 19
-31 22 -87 21 -37 0 -92 -7 -122 -15z m205 -62 c15 -12 32 -22 37 -22 17 0
128 -124 128 -144 0 -12 6 -39 14 -61 19 -54 15 -199 -6 -222 -9 -10 -27 -41
-42 -70 -16 -31 -34 -54 -48 -59 -13 -3 -39 -21 -59 -39 -45 -40 -109 -50
-223 -35 -58 7 -91 18 -127 40 -27 16 -60 30 -74 30 -19 0 -25 5 -25 21 0 31
-63 159 -79 159 -11 0 -10 5 4 20 17 19 17 21 0 46 -16 25 -16 28 -1 39 9 7
16 17 16 23 0 6 11 33 25 60 14 28 25 54 25 59 0 11 94 94 149 133 71 50 235
62 286 22z"/>
<path d="M6788 9440 c-20 -11 -44 -30 -52 -42 -14 -19 -14 -23 0 -32 14 -10
21 -44 40 -173 5 -29 3 -43 -5 -43 -18 0 -14 -130 4 -150 14 -16 14 -21 -2
-54 -14 -30 -15 -41 -5 -57 8 -12 9 -26 4 -37 -5 -9 -10 -54 -11 -99 l-1 -83
26 0 c14 0 43 9 64 21 l37 21 -4 117 c-2 64 -10 129 -16 145 -8 23 -8 31 1 34
8 2 12 35 12 103 0 115 25 194 64 204 84 22 104 28 125 36 14 6 28 6 35 0 6
-5 25 -11 41 -13 36 -4 54 -44 54 -127 1 -39 6 -57 19 -67 16 -12 16 -14 0
-42 -21 -36 -23 -111 -4 -164 11 -32 11 -39 0 -49 -15 -13 -21 -204 -6 -213 9
-5 79 25 104 45 15 13 15 23 5 106 -7 50 -15 95 -19 99 -13 12 -9 41 5 47 17
6 12 170 -6 206 -9 19 -9 25 1 28 6 3 12 20 12 39 0 45 36 79 103 99 116 34
181 7 205 -85 15 -61 15 -63 6 -168 -4 -51 -3 -77 6 -87 9 -11 10 -22 1 -42
-15 -39 -23 -290 -10 -299 6 -3 23 2 37 13 15 11 41 27 58 36 30 15 31 18 26
69 -3 29 -10 56 -15 60 -8 5 -7 14 1 30 11 22 13 64 13 373 1 65 -3 92 -13
100 -8 5 -14 23 -14 40 1 46 -37 60 -159 59 -89 -1 -106 -4 -152 -28 -28 -15
-57 -34 -64 -42 -18 -22 -27 -17 -48 30 -10 24 -28 47 -39 50 -28 9 -75 -1
-88 -19 -14 -19 -34 -19 -34 0 0 8 -6 15 -13 15 -24 0 -111 -33 -139 -51 -14
-11 -30 -19 -35 -19 -4 0 -14 -9 -21 -20 -7 -11 -21 -20 -32 -20 -17 0 -20 7
-20 48 0 46 -13 72 -34 72 -6 -1 -28 -10 -48 -20z"/>
<path d="M8278 9444 c-3 -3 -26 -7 -49 -9 -81 -8 -254 -79 -254 -105 0 -8 21
-22 48 -32 l49 -18 34 30 c19 16 54 38 77 49 24 11 50 27 57 36 14 17 40 20
40 5 0 -5 21 -10 48 -10 74 0 119 -17 148 -55 15 -19 33 -35 40 -35 16 0 15 5
18 -83 3 -81 3 -81 -119 -92 -147 -12 -183 -21 -325 -88 -131 -62 -210 -157
-195 -235 8 -41 79 -118 117 -126 108 -23 132 -25 205 -16 95 12 155 25 250
54 l73 22 -7 -40 c-6 -39 -6 -39 23 -33 52 10 123 47 129 67 3 11 1 30 -6 42
-9 15 -12 60 -10 135 1 77 -2 118 -11 132 -10 16 -10 23 -1 32 16 16 6 126
-13 154 -8 11 -14 37 -14 58 0 52 -25 88 -59 85 -22 -3 -26 1 -26 21 0 22 -8
27 -70 42 -67 17 -186 25 -197 13z m185 -385 c72 -2 93 -10 85 -31 -3 -8 -3
-45 1 -83 9 -81 0 -106 -59 -159 -28 -25 -50 -36 -71 -36 -16 0 -44 -7 -62
-16 -17 -10 -47 -18 -67 -19 -19 -2 -53 -6 -76 -10 -29 -5 -45 -3 -55 7 -8 7
-33 22 -56 32 -37 16 -45 17 -59 5 -16 -13 -17 -11 -11 25 3 21 2 61 -4 87
l-11 49 42 40 c23 22 72 54 108 71 73 34 187 60 213 47 9 -4 46 -8 82 -9z"/>
<path d="M9147 9426 c-161 -68 -261 -158 -273 -247 -5 -39 -3 -49 21 -77 15
-18 35 -32 45 -32 10 0 22 -4 25 -10 3 -5 16 -9 28 -8 12 0 35 -4 50 -11 31
-12 100 0 113 20 4 7 12 5 23 -5 11 -10 43 -17 95 -19 l79 -4 30 -54 29 -54
-21 -57 c-12 -31 -31 -68 -42 -82 -30 -38 -98 -64 -187 -71 -85 -8 -102 -3
-188 56 -33 23 -43 36 -48 68 -3 22 -10 43 -16 46 -12 8 -60 -17 -84 -44 -19
-20 -19 -23 -3 -56 28 -58 146 -124 227 -126 53 -1 161 8 200 16 97 22 196 94
215 156 4 10 15 19 25 19 11 0 24 9 30 19 20 39 6 153 -25 202 -18 27 -109 76
-150 79 -69 6 -220 -1 -229 -11 -15 -14 -36 -11 -36 7 0 8 -19 24 -45 35 -38
17 -45 24 -45 48 0 35 30 75 79 106 42 26 167 38 192 19 8 -6 31 -14 53 -17
60 -9 177 56 149 84 -5 5 -41 12 -79 14 -38 2 -94 6 -124 9 -45 6 -65 2 -113
-18z"/>
<path d="M11649 9413 c-24 -14 -54 -35 -65 -45 -20 -18 -21 -21 -7 -49 11 -21
13 -44 8 -75 -5 -33 -3 -44 7 -44 10 0 13 -25 14 -102 1 -57 5 -120 9 -140 5
-28 3 -41 -9 -53 -10 -11 -17 -36 -18 -73 0 -31 -2 -70 -4 -87 -10 -90 -10
-90 11 -93 13 -2 39 15 72 45 l51 48 -8 75 c-5 41 -6 141 -3 222 5 112 3 151
-7 163 -9 11 -10 22 -2 42 6 16 13 53 15 83 3 30 8 63 12 72 4 11 0 20 -12 27
-15 7 -29 4 -64 -16z"/>
<path d="M12239 9402 c-41 -15 -88 -36 -105 -48 -16 -11 -50 -33 -76 -48 -27
-15 -48 -31 -48 -37 0 -6 -18 -26 -39 -46 -72 -64 -128 -256 -85 -287 15 -12
16 -16 5 -30 -18 -21 -6 -67 29 -111 16 -20 30 -39 32 -43 7 -18 86 -71 113
-78 17 -4 35 -10 40 -14 32 -24 146 -28 292 -10 99 13 230 67 285 118 70 66
137 232 108 267 -12 14 -5 55 11 66 12 7 -7 116 -28 157 -9 17 -23 32 -31 32
-8 0 -36 22 -62 49 -55 58 -118 83 -146 60 -15 -12 -19 -11 -32 9 -13 20 -22
22 -101 21 -66 0 -103 -7 -162 -27z m242 -39 c7 -8 26 -21 43 -30 45 -23 124
-112 132 -147 3 -17 13 -50 20 -72 10 -30 11 -55 5 -90 -5 -28 -5 -57 0 -71 7
-18 4 -28 -11 -43 -11 -11 -31 -42 -45 -70 -18 -36 -36 -56 -58 -65 -18 -7
-43 -25 -56 -39 -54 -58 -248 -54 -345 7 -27 17 -61 31 -75 32 -19 0 -25 5
-23 18 2 9 -8 39 -22 65 -13 26 -29 60 -35 75 -6 15 -16 25 -21 22 -14 -8 -13
8 1 22 9 9 9 20 -1 44 -12 27 -11 32 3 41 9 5 17 15 17 23 0 8 9 29 20 47 11
18 20 41 20 52 0 38 178 177 232 181 16 2 32 6 35 9 13 13 152 4 164 -11z"/>
<path d="M13016 9405 c-55 -33 -60 -46 -46 -119 7 -33 12 -103 11 -153 -2 -88
-1 -93 18 -93 26 0 26 -7 1 -48 -22 -36 -25 -75 -9 -141 6 -26 6 -47 1 -50
-10 -7 -26 -151 -16 -151 3 0 29 7 57 16 77 25 96 56 55 93 -19 18 -19 21 -5
27 15 5 17 23 17 123 0 64 -4 121 -9 127 -13 14 -23 64 -12 64 5 0 11 30 13
67 4 64 6 68 48 104 34 30 56 40 97 45 29 3 57 12 64 20 9 11 17 11 46 -1 20
-8 47 -15 61 -15 14 0 33 -7 43 -16 17 -15 21 -13 63 22 52 43 49 39 36 63
-13 25 -37 33 -60 21 -13 -7 -21 -6 -30 5 -7 8 -22 15 -34 15 -51 0 -157 -30
-224 -65 -41 -20 -80 -34 -88 -31 -9 3 -14 20 -14 45 0 26 -5 41 -16 45 -21 8
-23 8 -68 -19z"/>
<path d="M13693 9399 c-67 -39 -80 -55 -65 -80 7 -10 12 -44 12 -74 0 -30 4
-55 9 -55 5 0 7 -39 5 -86 -3 -61 1 -100 13 -136 15 -47 15 -52 0 -63 -13 -9
-19 -39 -26 -116 -5 -57 -10 -108 -11 -114 -10 -48 17 -45 87 7 l56 42 -7 71
c-4 38 -7 143 -6 233 1 114 -2 168 -11 178 -8 9 -8 18 -2 27 6 6 13 39 16 72
3 33 9 70 12 82 5 15 1 24 -12 31 -15 8 -30 4 -70 -19z"/>
<path d="M16215 9359 c-4 -6 -5 -12 -2 -15 2 -3 7 2 10 11 7 17 1 20 -8 4z"/>
<path d="M16281 9315 c0 -5 6 -19 14 -29 8 -10 12 -23 8 -29 -3 -6 -1 -7 5 -3
7 4 12 4 12 -1 0 -4 12 -14 28 -21 l27 -12 -30 29 c-17 16 -38 39 -47 52 -9
13 -17 20 -17 14z"/>
<path d="M16222 9285 c10 -10 49 -14 43 -4 -4 5 -16 9 -27 9 -12 0 -19 -2 -16
-5z"/>
<path d="M16407 9264 c-3 -4 -2 -16 4 -26 8 -14 8 -23 0 -31 -6 -6 -11 -16
-11 -21 0 -6 6 -2 12 8 10 18 13 15 34 -25 26 -50 31 -74 9 -45 -8 11 -15 15
-15 10 0 -6 11 -21 25 -34 26 -24 35 -66 13 -55 -7 4 -5 0 6 -9 18 -14 22 -39
30 -198 0 -14 5 -24 10 -21 4 3 5 -5 1 -17 -4 -12 -3 -25 2 -29 6 -3 17 -26
27 -51 9 -25 13 -31 9 -15 -4 17 -7 42 -7 57 -1 14 -4 24 -7 22 -3 -1 -6 10
-6 26 0 16 4 27 9 24 4 -3 8 -12 8 -20 0 -8 4 -12 10 -9 10 6 -14 53 -34 67
-6 4 -11 34 -12 67 -1 32 -5 65 -9 71 -4 6 -8 21 -10 33 -9 56 -27 107 -37
107 -5 0 -7 4 -4 9 7 11 -34 91 -46 91 -5 0 -6 5 -3 10 7 11 2 13 -8 4z"/>
<path d="M16327 9217 c-3 -7 4 -24 15 -38 l19 -24 -12 25 c-7 14 -12 31 -11
38 4 16 -4 16 -11 -1z"/>
<path d="M16471 9195 c4 -5 9 -19 11 -30 2 -13 6 -16 11 -9 4 7 -1 20 -11 31
-9 10 -14 14 -11 8z"/>
<path d="M16390 9106 c17 -24 37 -47 46 -50 29 -11 29 -5 2 10 -16 8 -28 19
-28 25 0 6 5 7 12 3 7 -4 8 -3 4 5 -4 6 -12 9 -17 6 -5 -4 -9 0 -9 7 0 7 -9
19 -20 25 -15 10 -12 3 10 -31z"/>
<path d="M16497 9143 c-2 -4 9 -26 26 -48 16 -22 27 -31 23 -20 -7 19 -6 19
14 -1 12 -11 23 -34 25 -50 2 -16 5 -29 6 -29 1 0 3 -9 5 -20 14 -74 24 -105
34 -105 5 0 6 -8 3 -19 -3 -10 -1 -21 4 -24 14 -9 7 57 -10 90 -9 18 -17 44
-17 59 0 26 0 27 20 9 11 -10 22 -16 25 -14 2 3 -9 13 -24 23 -16 11 -33 33
-39 50 -13 35 -87 113 -95 99z"/>
<path d="M14370 9032 l5 -77 3 69 c2 38 -1 73 -5 77 -4 4 -6 -27 -3 -69z"/>
<path d="M16555 9000 c10 -11 20 -20 23 -20 3 0 -3 9 -13 20 -10 11 -20 20
-23 20 -3 0 3 -9 13 -20z"/>
<path d="M16473 8910 c11 -43 24 -77 29 -74 4 3 4 14 -2 24 -5 10 -10 29 -10
42 0 46 -4 66 -12 62 -4 -3 -8 2 -8 10 0 9 -4 16 -9 16 -4 0 1 -36 12 -80z"/>
<path d="M16540 8950 c6 -11 13 -20 16 -20 2 0 0 9 -6 20 -6 11 -13 20 -16 20
-2 0 0 -9 6 -20z"/>
<path d="M16685 8950 c-3 -5 -1 -10 4 -10 6 0 11 5 11 10 0 6 -2 10 -4 10 -3
0 -8 -4 -11 -10z"/>
<path d="M14383 8905 c0 -22 2 -30 4 -17 2 12 2 30 0 40 -3 9 -5 -1 -4 -23z"/>
<path d="M16680 8905 c0 -5 5 -17 10 -25 5 -8 10 -10 10 -5 0 6 -5 17 -10 25
-5 8 -10 11 -10 5z"/>
<path d="M16707 8865 c-4 -8 -2 -17 4 -21 6 -3 8 -12 5 -20 -3 -8 -1 -14 5
-14 6 0 7 -4 4 -10 -3 -5 -1 -10 5 -10 6 0 8 -4 5 -10 -3 -5 0 -7 9 -4 13 5
12 12 -8 42 -13 21 -21 43 -19 50 6 17 -4 15 -10 -3z"/>
<path d="M16461 8814 c0 -11 3 -14 6 -6 3 7 2 16 -1 19 -3 4 -6 -2 -5 -13z"/>
<path d="M16470 8776 c0 -8 4 -17 9 -20 5 -4 7 3 4 14 -6 23 -13 26 -13 6z"/>
<path d="M16015 8770 c-7 -12 2 -12 30 0 19 8 19 9 -2 9 -12 1 -25 -3 -28 -9z"/>
<path d="M16560 8761 c0 -6 4 -13 10 -16 6 -3 7 1 4 9 -7 18 -14 21 -14 7z"/>
<path d="M14692 8725 c0 -16 2 -22 5 -12 2 9 2 23 0 30 -3 6 -5 -1 -5 -18z"/>
<path d="M15245 8740 c-3 -6 1 -7 9 -4 18 7 21 14 7 14 -6 0 -13 -4 -16 -10z"/>
<path d="M16531 8714 c0 -11 3 -14 6 -6 3 7 2 16 -1 19 -3 4 -6 -2 -5 -13z"/>
<path d="M16108 8711 c-42 -9 -127 -78 -125 -101 3 -23 267 -21 319 3 l37 17
-22 22 c-56 56 -127 76 -209 59z m76 -9 c2 -4 -2 -16 -10 -27 -13 -18 -14 -18
-14 8 0 25 13 36 24 19z m-96 -16 c-7 -8 -15 -12 -17 -11 -5 6 10 25 20 25 5
0 4 -6 -3 -14z m62 -6 c0 -5 -4 -10 -10 -10 -5 0 -10 5 -10 10 0 6 5 10 10 10
6 0 10 -4 10 -10z m133 -16 c31 -30 29 -39 -10 -47 -16 -3 -35 -8 -45 -12 -14
-6 -15 -2 -8 31 5 21 7 42 4 46 -13 20 36 5 59 -18z m-231 -28 c5 -23 -7 -36
-33 -36 -13 0 -11 28 4 45 17 20 24 18 29 -9z m145 -32 c-3 -3 -12 -4 -19 -1
-8 3 -5 6 6 6 11 1 17 -2 13 -5z"/>
<path d="M16537 8651 c-4 -17 -3 -21 5 -13 5 5 8 16 6 23 -3 8 -7 3 -11 -10z"/>
<path d="M15255 8631 c-47 -23 -153 -116 -143 -126 4 -4 29 14 56 39 27 25 52
46 56 46 3 0 6 -16 6 -36 0 -26 -4 -35 -13 -31 -8 3 -19 2 -26 -2 -7 -5 27
-14 76 -21 l88 -12 113 37 c61 21 109 41 106 46 -3 5 1 9 8 9 19 1 -57 40
-111 56 -67 20 -167 18 -216 -5z m110 0 c6 -10 -25 -31 -46 -31 -9 0 -9 3 0
14 9 11 9 15 -1 19 -7 3 -1 6 14 6 15 1 29 -3 33 -8z m105 -7 c51 -14 57 -18
56 -42 -1 -24 -9 -29 -74 -50 -40 -14 -75 -22 -78 -20 -2 3 2 17 10 32 10 20
12 37 5 59 -5 18 -9 33 -9 34 0 7 39 1 90 -13z m-90 -54 c0 -5 -10 -10 -22 -9
-22 0 -22 1 -3 9 11 5 21 9 23 9 1 1 2 -3 2 -9z m-92 -57 c-10 -2 -26 -2 -35
0 -10 3 -2 5 17 5 19 0 27 -2 18 -5z"/>
<path d="M16540 8597 c0 -8 7 -14 15 -14 11 0 12 4 4 14 -6 7 -13 13 -15 13
-2 0 -4 -6 -4 -13z"/>
<path d="M14682 8560 c0 -14 2 -19 5 -12 2 6 2 18 0 25 -3 6 -5 1 -5 -13z"/>
<path d="M16551 8544 c0 -11 3 -14 6 -6 3 7 2 16 -1 19 -3 4 -6 -2 -5 -13z"/>
<path d="M14291 8517 c-11 -11 -15 -37 -5 -37 12 0 44 21 44 29 0 15 -27 20
-39 8z"/>
<path d="M14336 8496 c-3 -14 -13 -26 -21 -26 -19 0 -19 -10 0 -46 8 -16 15
-37 15 -46 0 -30 14 -20 26 17 8 24 8 37 0 45 -7 7 -7 17 3 32 11 17 10 23 -2
35 -13 13 -15 11 -21 -11z"/>
<path d="M14324 8336 c-3 -8 -1 -23 5 -35 6 -11 11 -36 11 -56 0 -54 44 -125
78 -125 8 0 -1 15 -22 36 -20 20 -37 46 -38 58 -3 36 -5 70 -7 104 -1 33 -17
43 -27 18z"/>
<path d="M5187 8179 c-29 -15 -37 -24 -32 -37 4 -9 7 -32 6 -51 -1 -19 5 -41
15 -52 12 -14 14 -22 6 -32 -12 -14 -12 -14 -12 -122 -1 -271 2 -360 12 -372
7 -9 7 -13 -1 -13 -15 0 -14 -113 1 -128 9 -9 9 -15 0 -24 -7 -7 -12 -25 -12
-41 0 -32 -16 -68 -36 -80 -22 -12 -18 -41 4 -31 23 11 117 7 160 -7 48 -16
128 -14 179 5 76 27 196 137 179 164 -3 5 3 20 14 32 29 33 34 58 19 104 -15
49 -67 119 -81 110 -5 -3 -18 3 -28 14 -25 27 -148 51 -161 31 -6 -10 -11 -11
-19 -3 -8 8 -30 5 -80 -10 -77 -22 -101 -16 -81 22 16 29 14 59 -6 88 -15 24
-16 27 0 35 14 8 16 29 16 147 0 75 2 167 5 205 7 77 0 82 -67 46z m322 -601
c20 -12 49 -35 64 -51 25 -26 28 -38 29 -96 3 -154 -114 -246 -270 -212 -31 7
-66 14 -77 16 -18 4 -20 11 -18 97 1 51 2 123 2 159 l1 67 43 26 c38 24 49 26
116 21 50 -3 85 -12 110 -27z"/>
<path d="M8542 8158 l-33 -20 6 -112 c4 -61 11 -126 15 -144 5 -20 5 -45 -2
-63 -6 -19 -8 -53 -3 -87 4 -32 7 -61 7 -67 -2 -115 -13 -386 -18 -437 -4 -37
-4 -68 0 -68 3 0 24 7 46 16 28 11 42 24 46 41 8 32 -3 142 -16 157 -10 13 -8
49 5 79 4 10 4 55 0 100 -4 45 -7 105 -8 132 0 109 12 406 18 415 9 15 -6 80
-19 79 -6 0 -26 -10 -44 -21z"/>
<path d="M15815 8031 c-8 -14 4 -19 73 -27 42 -4 62 -3 62 4 0 22 -122 43
-135 23z"/>
<path d="M4525 7909 c-5 -5 -22 -18 -36 -29 -20 -14 -29 -32 -34 -67 -3 -27
-13 -68 -20 -93 -7 -25 -23 -79 -35 -120 -12 -41 -23 -84 -25 -96 -2 -11 -8
-29 -14 -40 -6 -10 -16 -32 -21 -48 -10 -26 -12 -28 -26 -14 -8 8 -24 59 -35
114 -11 54 -24 101 -28 104 -5 3 -8 16 -8 30 0 34 -25 120 -36 120 -5 0 -6 14
-2 30 8 37 -16 80 -45 80 -31 0 -64 -95 -90 -265 -4 -27 -18 -77 -31 -110 -13
-33 -22 -64 -21 -68 1 -5 -6 -19 -17 -33 -24 -30 -29 -23 -52 67 -18 68 -56
159 -72 170 -5 4 -7 17 -6 30 5 32 -19 90 -45 111 -14 12 -16 18 -7 18 10 0
12 10 7 42 -11 65 -21 72 -67 41 -22 -14 -38 -29 -36 -32 3 -6 28 -63 46 -106
5 -11 16 -41 26 -67 9 -26 26 -62 38 -80 13 -18 23 -44 24 -58 1 -13 9 -30 18
-36 9 -7 15 -27 15 -54 0 -33 4 -43 20 -47 15 -4 17 -9 10 -22 -8 -16 0 -54
34 -151 14 -41 40 -46 44 -10 2 14 6 32 9 40 4 8 7 23 8 32 4 33 47 183 61
211 8 16 14 39 14 51 0 12 6 30 14 41 7 11 19 37 25 58 14 41 31 41 31 0 0
-14 8 -32 18 -39 9 -8 12 -14 5 -14 -9 0 -9 -7 2 -27 25 -51 60 -178 57 -205
-2 -17 2 -28 9 -28 7 0 9 -8 6 -21 -3 -12 -2 -29 3 -38 4 -9 14 -35 21 -59 8
-28 17 -42 27 -40 17 3 72 149 72 191 0 15 7 42 16 58 8 17 13 38 9 46 -3 9 1
23 9 32 8 9 22 43 31 76 9 33 26 80 36 104 11 24 18 50 14 58 -3 9 1 21 9 27
15 12 48 134 37 140 -3 2 -10 0 -16 -5z"/>
<path d="M6110 7891 c-8 -6 -27 -11 -42 -11 -33 0 -37 -15 -8 -23 18 -5 20
-12 18 -54 -1 -26 2 -77 7 -113 11 -88 12 -386 1 -433 -7 -29 -16 -41 -40 -51
l-31 -13 40 -11 c48 -14 72 -15 79 -3 3 5 38 7 78 5 93 -6 190 16 285 64 40
21 73 40 73 44 0 3 13 9 29 13 16 3 51 29 79 58 28 29 63 63 77 76 14 13 24
31 23 40 -2 9 7 25 20 35 21 16 23 25 18 65 -7 64 -15 92 -35 131 -11 20 -69
59 -100 67 -14 3 -31 13 -37 21 -7 10 -22 13 -42 10 -23 -3 -32 0 -35 12 -10
37 -415 99 -457 71z m225 -63 c22 -6 43 -11 47 -10 4 1 22 -5 42 -13 19 -8 42
-12 50 -9 9 3 16 1 16 -4 0 -6 15 -15 33 -21 108 -33 154 -65 186 -131 14 -30
15 -42 5 -87 -7 -29 -15 -61 -20 -70 -4 -10 -8 -23 -9 -29 0 -5 -19 -29 -43
-53 -23 -23 -42 -45 -42 -48 0 -10 -55 -48 -104 -71 -119 -55 -232 -80 -308
-67 -35 6 -54 25 -25 25 16 0 11 117 -5 138 -7 8 -7 17 2 27 17 21 11 244 -7
266 -12 14 -12 17 0 22 10 4 13 21 10 62 -2 34 1 63 8 71 14 17 108 18 164 2z"/>
<path d="M15900 7846 c-15 -29 -30 -34 -30 -11 0 8 -4 15 -10 15 -5 0 -10 -10
-10 -22 0 -13 -5 -30 -11 -38 -8 -11 -9 -7 -4 18 9 47 -6 39 -38 -19 -27 -49
-27 -50 -6 -44 25 8 48 13 67 14 6 1 12 8 12 16 0 8 4 15 10 15 12 0 42 58 38
72 -2 5 -10 -2 -18 -16z"/>
<path d="M16010 7861 c0 -16 73 -71 95 -71 18 1 16 4 -10 26 -39 33 -85 57
-85 45z"/>
<path d="M15705 7795 c-80 -47 -116 -105 -66 -105 25 0 60 29 99 84 37 51 28
56 -33 21z"/>
<path d="M15933 7808 c-18 -6 -33 -17 -33 -25 0 -9 5 -11 13 -6 6 4 35 9 62
11 62 4 78 9 70 22 -8 13 -70 11 -112 -2z"/>
<path d="M16140 7805 c0 -14 29 -35 49 -35 20 0 11 15 -19 32 -25 14 -30 14
-30 3z"/>
<path d="M16455 7780 c-3 -5 -2 -10 3 -10 5 0 12 -9 15 -20 3 -11 10 -20 17
-20 6 0 9 8 6 18 -5 13 1 22 16 30 21 10 20 11 -14 11 -20 1 -40 -3 -43 -9z"/>
<path d="M16056 7753 c-76 -27 -105 -30 -184 -20 -53 8 -162 -16 -162 -35 0
-4 -9 -8 -20 -8 -12 0 -20 -7 -20 -16 0 -9 -6 -14 -12 -11 -15 5 -48 -10 -48
-22 0 -9 40 -21 154 -46 59 -13 86 -14 174 -4 128 15 198 45 224 99 22 44 22
43 -1 68 -22 26 -18 26 -105 -5z m61 -34 c-14 -29 -27 -42 -48 -46 -16 -3 -29
-9 -29 -14 0 -5 -10 -9 -22 -10 -13 0 -57 -2 -98 -4 -51 -3 -91 1 -125 12
l-50 16 44 19 c29 12 65 18 105 17 73 -2 127 8 181 32 60 26 65 24 42 -22z"/>
<path d="M15575 7733 c-4 -13 -13 -23 -20 -23 -7 0 -23 -9 -36 -20 l-24 -21
31 15 c17 8 34 13 36 10 10 -9 30 25 25 43 -4 16 -6 15 -12 -4z"/>
<path d="M14761 7693 c0 -28 4 -55 9 -58 11 -7 11 35 0 80 -7 26 -8 23 -9 -22z"/>
<path d="M16456 7695 c-3 -9 -6 -29 -7 -43 0 -24 -1 -25 -9 -7 -6 17 -9 15
-15 -17 -7 -39 0 -78 16 -78 5 0 9 6 9 13 0 6 5 4 11 -5 18 -32 29 -19 29 36
0 61 -23 130 -34 101z"/>
<path d="M15385 7678 c-16 -12 -39 -32 -52 -44 -12 -11 -43 -32 -68 -45 -25
-13 -45 -27 -45 -31 0 -16 27 -7 79 27 29 19 59 35 66 35 12 0 36 27 59 68 11
19 -8 14 -39 -10z"/>
<path d="M15437 7653 c-41 -29 -47 -43 -19 -43 17 0 69 57 60 65 -2 3 -21 -7
-41 -22z"/>
<path d="M4820 7663 c-112 -19 -206 -88 -260 -191 -21 -41 -23 -69 -7 -156 6
-30 65 -86 114 -107 74 -32 244 -24 328 16 38 17 72 72 56 88 -9 9 -19 3 -43
-22 -38 -40 -75 -57 -149 -66 -70 -9 -110 -1 -142 29 -14 13 -32 26 -41 29 -9
4 -16 13 -16 21 0 7 -7 16 -15 20 -8 3 -15 16 -15 28 0 13 -7 36 -15 51 -21
42 -6 73 42 82 21 4 116 7 211 6 100 0 172 3 172 8 0 44 -65 123 -123 151 -41
20 -49 21 -97 13z m83 -71 c15 -14 27 -31 27 -38 0 -14 -54 -23 -115 -20 -22
2 -67 3 -100 4 l-60 2 25 24 c36 35 118 66 160 60 19 -3 47 -17 63 -32z"/>
<path d="M7135 7650 c-84 -17 -144 -53 -201 -121 -54 -65 -67 -95 -61 -148 10
-85 13 -94 47 -128 51 -54 101 -73 200 -73 142 1 229 28 250 80 18 43 0 60
-27 26 -49 -61 -195 -95 -266 -61 -56 26 -114 89 -122 133 -4 20 -11 42 -16
48 -6 7 -6 21 0 37 14 35 45 40 254 39 l178 0 -7 21 c-18 60 -91 143 -117 134
-7 -2 -18 2 -25 10 -15 14 -27 15 -87 3z m84 -58 c30 -22 48 -49 38 -58 -7 -7
-93 -9 -212 -6 l-60 2 26 25 c33 33 116 65 154 59 17 -2 41 -12 54 -22z"/>
<path d="M7437 7639 l-27 -21 34 -66 c19 -37 40 -86 47 -109 7 -24 18 -43 26
-43 7 0 14 -4 14 -10 1 -5 2 -14 3 -19 0 -5 4 -13 9 -17 4 -4 7 -16 7 -26 0
-23 69 -161 78 -156 4 2 18 9 32 16 14 7 32 28 39 45 8 18 30 64 49 102 18 39
49 111 67 160 18 50 41 107 49 128 15 35 15 37 -2 37 -31 0 -51 -23 -63 -75
-6 -27 -18 -67 -25 -88 -8 -20 -14 -49 -14 -62 0 -14 -3 -25 -7 -25 -5 0 -23
-32 -42 -70 -18 -39 -39 -70 -45 -70 -20 0 -146 279 -146 323 0 28 -23 67 -39
67 -9 0 -28 -10 -44 -21z"/>
<path d="M8149 7641 c-101 -27 -168 -79 -223 -173 -30 -52 -32 -90 -10 -159
37 -112 171 -162 344 -128 97 19 121 31 141 70 26 52 8 58 -43 14 -24 -20 -52
-38 -63 -40 -126 -26 -133 -27 -177 -7 -50 22 -122 88 -126 117 -2 11 -9 32
-17 47 -18 38 -8 75 24 84 14 4 108 8 209 9 100 1 185 4 187 7 3 3 -2 24 -11
47 -18 45 -88 113 -108 105 -7 -3 -19 2 -26 11 -15 18 -17 18 -101 -4z m107
-57 c48 -37 45 -60 -8 -67 -24 -3 -44 -3 -45 1 -2 4 -39 6 -82 5 -44 -2 -82 0
-85 5 -9 15 23 44 71 62 68 27 108 25 149 -6z"/>
<path d="M8930 7632 c-25 -9 -56 -24 -70 -33 -14 -9 -32 -20 -41 -25 -56 -30
-132 -179 -113 -222 4 -9 8 -31 9 -48 1 -17 8 -39 16 -48 35 -42 66 -67 89
-73 14 -3 31 -10 38 -16 8 -6 53 -8 119 -4 94 5 115 10 172 39 81 41 126 103
127 178 0 25 3 51 7 57 12 18 -10 107 -29 118 -9 5 -26 21 -38 33 -29 33 -73
54 -96 47 -10 -3 -21 -1 -25 5 -10 16 -114 11 -165 -8z m172 -34 c60 -45 86
-77 97 -125 15 -65 11 -133 -9 -163 -9 -14 -20 -33 -23 -43 -4 -9 -15 -20 -24
-24 -10 -3 -28 -15 -41 -27 -33 -30 -156 -28 -208 3 -19 12 -44 21 -55 21 -11
0 -18 4 -14 9 7 12 -36 101 -48 101 -5 0 -4 7 3 15 10 12 10 18 -1 31 -8 10
-9 18 -3 22 6 4 19 28 30 54 47 116 212 186 296 126z"/>
<path d="M9410 7624 c-27 -23 -30 -31 -24 -58 11 -49 14 -110 14 -280 0 -103
4 -164 11 -172 9 -10 8 -21 -1 -43 -7 -19 -10 -73 -8 -154 1 -69 -1 -129 -5
-133 -4 -4 -7 -36 -7 -72 l0 -64 33 6 c41 8 69 43 61 76 -4 14 -6 47 -5 73 1
27 -3 64 -9 83 -6 18 -8 39 -4 46 4 6 6 62 5 123 l-2 112 43 6 c23 3 48 1 55
-4 15 -13 135 -1 180 18 18 7 39 22 45 33 7 11 18 20 24 20 18 0 100 81 117
115 17 37 15 130 -4 170 -8 15 -23 33 -34 39 -11 6 -24 17 -28 24 -5 7 -33 25
-63 39 -47 22 -62 25 -121 19 -126 -11 -138 -13 -170 -30 -41 -21 -46 -20 -40
3 3 12 -1 22 -10 25 -20 8 -18 9 -53 -20z m353 -57 c15 -9 33 -17 42 -17 8 0
15 -4 15 -10 0 -5 14 -32 30 -60 17 -28 30 -61 30 -73 0 -46 -27 -96 -70 -132
-73 -61 -94 -68 -174 -61 -93 9 -96 9 -133 29 -30 16 -33 22 -33 65 -1 26 -2
81 -3 122 -3 100 11 135 60 148 58 17 205 9 236 -11z"/>
<path d="M10260 7632 c-100 -26 -171 -82 -224 -173 -30 -53 -32 -90 -10 -160
19 -56 62 -96 135 -123 54 -21 166 -17 262 9 32 8 60 15 62 15 5 0 45 76 45
85 0 3 -9 5 -20 5 -11 0 -20 -4 -20 -9 0 -26 -74 -65 -147 -77 -70 -12 -80
-12 -117 5 -38 17 -128 93 -126 106 3 12 -13 70 -20 75 -13 8 1 58 19 66 9 4
103 8 209 9 106 1 195 5 198 7 3 3 -3 24 -12 47 -18 45 -88 113 -108 105 -7
-3 -19 2 -26 11 -15 18 -18 18 -100 -3z m116 -67 c22 -21 34 -39 28 -44 -8 -9
-65 -15 -89 -11 -5 1 -39 1 -75 1 -36 0 -73 2 -83 5 -29 9 5 46 61 66 78 27
115 23 158 -17z"/>
<path d="M10641 7627 c-31 -19 -33 -22 -26 -61 4 -23 7 -68 6 -100 -2 -39 2
-62 10 -67 10 -6 10 -13 2 -31 -7 -13 -11 -54 -11 -93 1 -38 -2 -80 -6 -92 -9
-27 1 -29 49 -9 24 10 35 22 35 35 0 12 -5 21 -12 21 -9 0 -9 3 0 12 15 15 16
122 2 148 -6 12 -7 42 -2 80 10 69 27 87 102 107 42 11 86 8 130 -11 10 -4 25
3 39 18 20 22 22 28 11 41 -7 9 -20 13 -27 10 -8 -2 -22 -1 -32 5 -22 11 -97
-7 -158 -38 -52 -27 -53 -27 -53 2 0 38 -20 46 -59 23z"/>
<path d="M16506 7534 c-9 -24 -7 -54 4 -54 6 0 10 16 10 35 0 38 -4 44 -14 19z"/>
<path d="M14855 7490 c3 -5 13 -10 21 -10 8 0 12 5 9 10 -3 6 -13 10 -21 10
-8 0 -12 -4 -9 -10z"/>
<path d="M14917 7464 c-10 -11 -8 -44 2 -44 6 0 13 4 16 10 8 12 -9 43 -18 34z"/>
<path d="M16087 7463 c-11 -10 -8 -73 3 -73 6 0 10 18 10 40 0 41 -2 45 -13
33z"/>
<path d="M14800 7433 c0 -11 -6 -25 -12 -31 -10 -10 -10 -17 0 -32 6 -11 12
-30 12 -42 0 -30 15 -54 24 -39 11 18 33 13 39 -9 5 -21 27 -28 27 -9 0 5 -16
40 -35 76 -19 36 -35 72 -35 79 0 7 -4 16 -10 19 -5 3 -10 -2 -10 -12z"/>
<path d="M14765 7430 c3 -5 8 -10 11 -10 2 0 4 5 4 10 0 6 -5 10 -11 10 -5 0
-7 -4 -4 -10z"/>
<path d="M16322 7385 c-15 -33 -15 -58 0 -53 15 5 28 52 19 67 -5 7 -12 2 -19
-14z"/>
<path d="M15102 7336 c2 -43 9 -69 22 -81 17 -17 19 -17 47 14 29 32 29 32 29
8 0 -27 13 -41 46 -51 15 -5 24 -2 28 9 3 9 2 13 -4 10 -5 -3 -21 2 -35 11
-22 15 -25 22 -21 59 l5 42 -35 -34 c-39 -37 -54 -35 -54 5 0 39 -11 72 -22
72 -6 0 -9 -25 -6 -64z"/>
<path d="M16476 7354 c-11 -86 -7 -164 11 -195 14 -24 15 -34 6 -59 -13 -35
-5 -156 9 -142 11 11 14 295 4 372 -10 73 -22 82 -30 24z"/>
<path d="M15480 7266 c0 -8 5 -18 10 -21 6 -3 10 1 10 9 0 8 -4 18 -10 21 -5
3 -10 -1 -10 -9z"/>
<path d="M15423 7246 c1 -16 9 -32 17 -34 12 -4 13 -2 4 9 -7 8 -14 23 -17 34
-4 13 -5 9 -4 -9z"/>
<path d="M14800 7242 c0 -18 12 -42 21 -42 14 0 10 26 -6 40 -9 8 -15 8 -15 2z"/>
<path d="M16301 7208 c-5 -13 -6 -30 -3 -38 4 -10 8 -6 13 12 4 15 10 31 14
37 3 6 1 11 -5 11 -6 0 -14 -10 -19 -22z"/>
<path d="M16197 7187 c-3 -7 -1 -20 4 -28 6 -11 11 -11 21 -1 10 10 9 15 -4
28 -13 13 -16 13 -21 1z"/>
<path d="M15675 7127 c-8 -20 9 -67 25 -67 12 0 12 6 -5 50 -11 29 -14 32 -20
17z"/>
<path d="M16221 7075 c1 -55 14 -81 25 -51 8 22 -5 106 -16 106 -5 0 -9 -25
-9 -55z"/>
<path d="M14956 7112 c-3 -6 -1 -14 5 -17 15 -10 25 3 12 16 -7 7 -13 7 -17 1z"/>
<path d="M14906 7071 c-6 -10 41 -57 50 -49 7 8 -25 58 -37 58 -4 0 -10 -4
-13 -9z"/>
<path d="M15585 7060 c13 -46 56 -110 85 -125 36 -19 40 -19 40 -1 0 8 -17 23
-37 33 -25 13 -48 37 -66 69 -15 27 -25 38 -22 24z"/>
<path d="M16347 7060 c-19 -28 -21 -40 -7 -40 12 0 32 38 28 52 -3 7 -12 1
-21 -12z"/>
<path d="M15067 7018 c7 -52 18 -85 25 -72 7 13 -12 114 -22 114 -4 0 -6 -19
-3 -42z"/>
<path d="M16392 6999 c-18 -22 -20 -29 -8 -29 8 0 22 10 30 22 32 46 13 52
-22 7z"/>
<path d="M14990 6995 c0 -8 5 -15 10 -15 6 0 10 7 10 15 0 8 -4 15 -10 15 -5
0 -10 -7 -10 -15z"/>
<path d="M15425 6962 c7 -66 13 -82 32 -82 11 0 14 6 9 23 -3 12 -6 31 -6 41
0 11 -3 16 -7 12 -4 -4 -13 8 -20 26 -13 32 -13 31 -8 -20z"/>
<path d="M15471 6984 c0 -11 3 -14 6 -6 3 7 2 16 -1 19 -3 4 -6 -2 -5 -13z"/>
<path d="M15958 6995 c-4 -6 -3 -26 1 -45 4 -19 10 -30 13 -25 4 6 3 26 -1 45
-4 19 -10 30 -13 25z"/>
<path d="M15200 6955 c0 -42 29 -75 65 -75 35 0 31 17 -5 25 -26 6 -31 12 -36
46 -8 48 -24 51 -24 4z"/>
<path d="M16349 6850 c-72 -69 -86 -100 -31 -64 17 11 45 39 64 64 70 93 63
93 -33 0z"/>
<path d="M16451 6868 c-37 -42 -28 -51 15 -15 14 13 25 29 23 38 -3 10 -14 3
-38 -23z"/>
<path d="M15085 6881 c-3 -6 4 -15 15 -21 22 -12 23 -10 14 14 -7 18 -20 21
-29 7z"/>
<path d="M15775 6880 c3 -5 23 -10 43 -10 28 0 33 3 22 10 -20 13 -73 13 -65
0z"/>
<path d="M15711 6854 c0 -11 3 -14 6 -6 3 7 2 16 -1 19 -3 4 -6 -2 -5 -13z"/>
<path d="M15710 6786 c0 -17 37 -46 58 -46 8 0 0 13 -18 30 -37 34 -40 36 -40
16z"/>
<path d="M15905 6792 c14 -15 40 -19 43 -7 1 6 -10 11 -25 13 -19 2 -25 0 -18
-6z"/>
<path d="M15441 6764 c0 -11 3 -14 6 -6 3 7 2 16 -1 19 -3 4 -6 -2 -5 -13z"/>
<path d="M15820 6750 c20 -13 70 -13 70 0 0 6 -19 10 -42 10 -32 0 -39 -3 -28
-10z"/>
<path d="M15350 6718 c0 -18 27 -44 37 -34 4 4 -3 16 -15 29 -18 17 -22 18
-22 5z"/>
<path d="M16115 6679 c-10 -15 1 -23 20 -15 9 3 13 10 10 16 -8 13 -22 13 -30
-1z"/>
<path d="M15601 6656 c7 -14 17 -22 25 -19 18 7 18 13 -3 29 -27 20 -34 17
-22 -10z"/>
<path d="M16058 6673 c7 -3 16 -2 19 1 4 3 -2 6 -13 5 -11 0 -14 -3 -6 -6z"/>
<path d="M15440 6660 c0 -5 5 -10 10 -10 6 0 10 5 10 10 0 6 -4 10 -10 10 -5
0 -10 -4 -10 -10z"/>
<path d="M16175 6660 c-11 -17 5 -32 21 -19 8 6 14 15 14 20 0 12 -27 11 -35
-1z"/>
<path d="M15880 6540 c-11 -7 2 -10 43 -10 36 0 56 4 52 10 -8 13 -75 13 -95
0z"/>
</g>
</svg>
