<?xml version="1.0" standalone="no"?>
<!DOCTYPE svg PUBLIC "-//W3C//DTD SVG 20010904//EN"
 "http://www.w3.org/TR/2001/REC-SVG-20010904/DTD/svg10.dtd">
<svg version="1.0" xmlns="http://www.w3.org/2000/svg"
 width="629.000000pt" height="737.000000pt" viewBox="0 0 629.000000 737.000000"
 preserveAspectRatio="xMidYMid meet">

<g transform="translate(0.000000,737.000000) scale(0.100000,-0.100000)"
fill="#000000" stroke="none">
<path d="M2545 7230 c-609 -36 -1028 -203 -1347 -538 -261 -275 -417 -655
-473 -1157 -31 -270 -29 -816 3 -1041 6 -44 10 -49 32 -49 14 0 29 -6 33 -13
5 -7 16 -10 26 -7 16 5 17 -1 13 -49 -3 -42 1 -68 19 -113 13 -32 28 -61 33
-64 5 -4 6 -11 2 -17 -3 -5 1 -32 9 -58 8 -27 12 -58 9 -69 -4 -18 -3 -17 15
4 12 13 21 33 21 45 0 42 20 95 34 90 8 -3 17 -1 21 5 8 15 25 14 25 -1 0 -25
-64 -148 -71 -137 -4 7 -13 -2 -24 -25 -17 -35 -17 -37 1 -51 11 -8 22 -15 26
-15 3 0 4 -9 1 -20 -12 -45 35 -8 76 60 11 19 21 46 22 60 1 23 2 23 8 -5 l8
-30 12 42 c15 56 35 68 25 16 -3 -21 -11 -44 -16 -50 -13 -16 -3 -43 14 -43
19 0 48 37 48 60 0 11 6 37 14 57 19 49 26 117 15 134 -11 18 -42 0 -48 -27
-2 -10 -14 -29 -27 -40 l-23 -22 -3 31 c-3 27 -5 29 -12 12 -4 -11 -14 -33
-22 -50 l-14 -30 6 40 c4 22 15 49 24 60 10 11 22 34 25 50 13 55 16 65 26 65
6 0 6 -8 -1 -20 -8 -14 -7 -25 2 -40 24 -38 41 -19 61 67 11 48 24 81 31 80
12 -2 21 73 11 110 -7 29 -25 30 -25 2 0 -11 -4 -18 -9 -15 -5 4 -12 -12 -16
-34 -10 -58 -25 -49 -25 15 0 41 -5 60 -19 74 -11 11 -18 21 -17 23 9 11 15
58 7 58 -5 0 -14 -12 -19 -27 -10 -28 -10 -27 -11 10 -1 27 3 37 14 37 10 0
15 10 15 32 0 17 3 28 7 25 10 -11 33 13 33 34 0 11 5 19 11 19 11 0 5 -28
-16 -72 -16 -34 -8 -118 11 -118 10 0 13 -7 8 -26 -5 -20 -3 -25 7 -22 17 6
25 48 10 57 -7 5 -7 17 -2 36 l9 30 1 -28 c1 -16 5 -26 11 -22 6 4 10 28 9 56
-2 42 2 52 24 69 19 16 30 38 42 95 19 83 17 111 -8 109 -9 -1 -17 5 -17 12 0
8 -6 17 -14 20 -8 3 -11 15 -8 30 4 23 2 25 -24 19 -26 -5 -26 -4 -6 4 22 10
31 41 12 41 -5 0 -10 7 -10 16 0 21 -24 12 -29 -11 -2 -10 -9 -24 -15 -31 -10
-9 -15 -8 -24 7 -10 16 -3 26 66 85 42 36 97 80 122 97 25 17 47 33 50 36 24
28 249 159 395 230 88 43 378 161 395 161 5 0 18 4 28 9 9 5 42 16 72 24 30 9
78 22 105 31 28 8 76 19 108 25 32 6 62 13 68 16 5 4 111 18 237 31 298 33
689 38 857 11 143 -22 258 -49 266 -61 4 -5 14 -6 24 -3 9 4 14 3 11 -1 -3 -5
12 -16 32 -26 29 -13 33 -13 18 -1 -14 11 -16 15 -5 15 21 0 42 -16 36 -27 -7
-11 36 -56 45 -48 3 3 27 -18 53 -47 38 -42 44 -46 29 -19 -24 42 -103 113
-118 104 -7 -4 -8 -2 -1 5 11 12 65 4 65 -9 0 -5 8 -9 18 -9 65 0 193 -137
179 -191 -3 -11 -1 -17 4 -13 5 3 9 -3 9 -13 0 -10 7 -38 16 -62 16 -48 12
-61 -14 -45 -16 10 -81 154 -82 183 0 11 3 11 18 0 15 -13 16 -12 3 3 -7 10
-17 16 -21 13 -4 -3 -10 5 -13 17 -4 12 -9 20 -12 16 -6 -5 54 -178 75 -218
10 -19 64 -49 96 -54 28 -4 64 -51 114 -151 30 -61 69 -134 87 -164 18 -30 33
-63 33 -72 0 -10 20 -34 45 -55 35 -29 44 -41 40 -58 -5 -15 -4 -17 3 -7 8 11
11 11 16 0 3 -8 3 -4 0 9 -7 30 10 28 36 -5 12 -16 18 -21 14 -13 -5 12 -4 12
5 4 7 -7 15 -29 18 -50 5 -36 4 -37 -13 -24 -17 14 -18 13 -6 -2 8 -10 12 -39
10 -80 l-3 -63 -20 75 c-11 41 -28 83 -38 93 -10 10 -15 22 -12 27 4 6 1 10
-5 10 -8 0 -9 -11 -5 -32 5 -25 4 -29 -4 -18 -6 8 -11 24 -12 35 0 11 -3 15
-5 8 -3 -6 4 -49 16 -95 17 -67 26 -162 30 -296 0 -7 4 -11 10 -7 5 3 11 -26
13 -72 l3 -78 3 95 c2 76 5 89 12 65 5 -16 11 -75 14 -130 2 -55 7 -138 9
-185 l5 -85 -14 55 c-8 30 -17 64 -19 75 -2 11 -8 33 -15 48 -6 16 -11 47 -12
70 0 29 -3 36 -8 23 -6 -15 -9 -11 -18 20 -12 44 -12 39 -21 154 -7 80 -8 82
-13 35 -5 -51 10 -206 21 -215 12 -10 32 -69 26 -79 -3 -5 -2 -11 3 -13 17 -6
49 -150 57 -250 4 -57 11 -95 16 -92 6 4 7 32 3 68 l-6 61 20 -30 c15 -22 21
-25 21 -12 0 9 -1 19 -2 20 -2 2 2 10 8 18 8 9 9 28 4 54 l-8 40 -1 -47 c0
-26 -5 -49 -10 -52 -14 -9 -20 38 -21 144 0 52 -2 107 -6 122 -3 14 -1 34 5
45 9 16 10 16 11 -7 0 -23 21 -130 40 -205 14 -56 3 96 -14 189 -22 121 -20
125 14 26 16 -47 29 -81 30 -76 0 5 14 -12 31 -37 32 -49 49 -65 49 -48 0 5
-4 12 -9 16 -26 15 -92 159 -111 239 -12 49 -19 90 -17 92 2 2 18 -35 37 -83
52 -139 108 -249 116 -229 12 31 -5 117 -31 160 -15 22 -42 65 -61 95 -18 30
-36 71 -40 90 -8 50 -26 88 -19 41 4 -27 3 -30 -4 -15 -14 29 -14 118 0 109 7
-4 9 0 5 12 -9 31 -18 99 -12 93 3 -3 7 -14 9 -25 2 -10 22 -58 45 -105 22
-47 54 -132 72 -190 47 -153 60 -189 72 -189 7 0 7 4 0 13 -6 7 -20 46 -31 87
-27 101 -57 190 -87 258 -21 50 -22 54 -4 33 11 -13 20 -18 20 -12 0 7 -11 23
-25 36 -13 14 -21 25 -17 25 4 0 2 4 -4 8 -10 7 -45 90 -60 142 -14 50 90 -79
123 -153 18 -40 33 -65 33 -57 0 8 -9 34 -20 58 -24 52 -17 56 9 5 21 -43 39
-118 22 -93 -6 8 -11 11 -11 6 0 -5 -10 -1 -22 10 -13 10 -8 3 10 -17 25 -28
35 -49 43 -99 10 -65 55 -163 77 -167 17 -4 15 5 -8 34 -11 14 -20 32 -20 39
0 8 -5 14 -11 14 -6 0 -8 7 -5 16 3 8 2 13 -3 10 -5 -3 -9 11 -9 32 0 36 1 37
15 14 9 -12 20 -22 25 -22 5 0 -2 15 -16 33 -15 19 -26 38 -26 43 0 5 12 -9
28 -30 15 -21 27 -42 27 -47 0 -5 4 -9 8 -8 31 4 97 -107 97 -163 0 -23 20
-24 21 0 0 14 2 14 9 -3 7 -19 8 -19 15 -2 7 17 9 17 33 -5 l26 -23 -23 33
c-12 17 -27 32 -32 32 -6 0 -7 5 -4 10 3 6 1 10 -5 10 -6 0 -8 5 -5 10 4 6 11
7 17 4 7 -4 8 -2 4 5 -4 6 -11 9 -16 6 -11 -7 -23 32 -14 46 5 8 3 9 -6 4 -10
-6 -12 -3 -8 13 4 12 3 20 0 18 -4 -2 -8 18 -9 44 -1 27 -9 64 -17 84 -8 19
-12 43 -10 53 5 17 -75 186 -98 208 -6 6 -6 1 1 -12 20 -39 12 -38 -21 2 -18
22 -46 53 -63 69 -16 16 -30 34 -30 40 0 6 -7 11 -15 11 -8 0 -15 8 -15 17 0
9 -4 20 -9 25 -5 5 -6 2 -1 -7 8 -13 7 -13 -9 -1 -9 8 -15 20 -12 28 3 8 2 11
-4 8 -13 -8 -71 96 -66 117 2 10 -1 16 -6 15 -6 -1 -13 4 -16 12 -3 8 0 11 7
7 7 -5 9 -1 5 8 -3 9 -3 16 0 16 11 0 47 -82 42 -96 -3 -8 -1 -14 5 -14 6 0 8
-4 5 -9 -3 -5 1 -12 10 -15 9 -4 14 -9 11 -12 -3 -4 4 -15 16 -25 20 -16 24
-17 47 -2 53 34 239 189 323 269 48 46 92 84 97 84 10 0 168 149 256 240 82
86 222 258 251 309 15 25 42 64 60 87 18 22 40 56 48 75 9 19 24 49 35 67 19
31 19 35 4 65 -40 78 -180 190 -333 266 -200 101 -613 203 -976 241 -60 7
-129 16 -151 21 -23 4 -80 13 -128 18 -97 11 -102 14 -218 92 -436 294 -1019
435 -1643 399z m395 -70 c137 -10 384 -49 469 -74 218 -65 334 -107 441 -157
135 -65 270 -139 270 -149 0 -6 -15 -5 -245 25 -66 8 -172 15 -235 15 -63 0
-162 4 -220 10 -58 5 -163 12 -235 15 -71 4 -161 9 -200 11 -375 19 -820 -7
-1060 -62 -346 -79 -549 -205 -673 -414 -31 -52 -70 -116 -88 -141 -17 -25
-51 -81 -75 -125 -23 -43 -65 -122 -94 -174 -28 -52 -56 -104 -62 -115 -34
-61 -61 -125 -67 -160 -5 -22 -12 -45 -17 -51 -5 -6 -18 -47 -28 -90 -11 -44
-27 -110 -37 -149 -9 -38 -18 -86 -19 -105 -1 -19 -9 -91 -18 -160 -10 -68
-17 -145 -17 -170 -1 -38 -2 -42 -12 -26 -14 24 5 445 28 616 92 697 408 1178
939 1431 198 95 415 155 655 183 80 9 154 19 165 20 48 8 311 5 435 -4z m1111
-1477 c13 -16 12 -17 -3 -4 -10 7 -18 15 -18 17 0 8 8 3 21 -13z m219 -78 c12
-20 41 -75 65 -124 34 -70 48 -90 69 -95 29 -7 48 -42 49 -88 0 -17 5 -24 13
-21 8 3 17 -10 23 -34 21 -73 10 -78 -24 -12 -20 38 -53 83 -79 106 -39 34
-47 49 -69 125 -28 96 -40 123 -70 156 -11 12 -16 22 -10 22 6 0 21 -16 33
-35z m170 -81 c90 -59 98 -67 94 -92 -3 -20 -2 -23 5 -12 5 8 7 18 5 22 -3 4
-1 8 3 8 14 0 78 -73 91 -103 13 -31 8 -52 -10 -41 -8 5 -9 1 -4 -12 53 -133
57 -148 37 -130 -11 10 -29 38 -40 62 -12 24 -23 44 -24 44 -12 0 44 -183 66
-217 15 -24 27 -46 27 -49 0 -4 11 -22 26 -41 28 -36 54 -94 54 -118 0 -12 -3
-13 -19 -3 -11 7 -17 16 -14 22 3 5 1 6 -5 2 -14 -9 -62 14 -62 30 0 7 5 14
11 16 6 2 -5 23 -25 47 -20 23 -36 39 -36 34 0 -4 -5 -1 -10 7 -6 8 -10 38
-10 65 1 54 -10 106 -30 145 -14 27 -66 80 -73 74 -2 -2 -4 2 -4 9 0 6 -13 39
-30 73 -17 33 -38 84 -47 112 -25 73 -38 74 -15 1 23 -74 24 -90 3 -82 -8 3
-40 55 -70 115 l-55 109 31 -16 c17 -9 75 -45 130 -81z m301 -278 c42 -63 43
-64 30 -85 -7 -11 -15 -9 -42 11 -25 21 -37 42 -54 102 l-22 77 24 -23 c14
-13 42 -49 64 -82z m-72 11 c1 -5 -3 -5 -9 -2 -5 3 -10 16 -9 28 0 21 1 21 9
2 5 -11 9 -24 9 -28z m-110 -71 c18 -39 39 -166 27 -166 -3 0 -17 20 -32 45
-25 44 -33 70 -49 160 -7 40 -7 40 14 21 11 -10 29 -37 40 -60z m163 -149 l28
-82 -25 30 c-30 36 -95 161 -95 183 0 11 10 5 32 -17 21 -21 42 -62 60 -114z
m48 81 c0 -5 -6 -6 -12 -2 -9 6 -9 3 1 -9 7 -9 11 -24 7 -32 -3 -8 11 -43 31
-76 47 -82 113 -223 113 -244 0 -9 5 -13 10 -10 6 3 10 1 10 -5 0 -6 4 -9 8
-6 4 2 8 -3 8 -12 1 -9 5 -26 9 -37 4 -11 -8 1 -27 27 -20 26 -39 44 -43 40
-5 -4 -5 1 -2 10 3 10 2 17 -3 15 -5 -1 -16 7 -25 18 -9 11 -13 13 -9 5 7 -13
5 -13 -9 -1 -19 15 -23 36 -5 25 7 -4 8 -3 4 5 -4 6 -11 9 -16 6 -9 -6 -32 28
-28 42 1 4 -3 18 -10 30 -10 17 -9 22 5 28 14 5 15 8 4 14 -7 5 -13 12 -13 17
0 5 -5 20 -10 34 -6 14 -11 39 -13 57 -2 17 -8 41 -15 52 -14 27 -4 47 16 30
8 -6 14 -16 14 -21z m-3670 -77 c-5 -11 -10 -30 -11 -43 l0 -23 -11 23 c-9 18
-7 26 7 42 23 25 29 26 15 1z m3719 -36 c0 -5 -6 -1 -14 9 -8 11 -15 24 -15
30 0 5 7 1 15 -10 8 -10 14 -23 14 -29z m-3668 -19 c5 -5 14 -4 23 3 32 26 41
-10 13 -47 -8 -11 -13 -8 -23 10 l-12 23 -10 -25 c-5 -14 -12 -34 -15 -45 -3
-13 -5 -9 -6 13 0 17 -5 32 -10 32 -5 0 -2 18 7 40 11 26 18 34 20 22 2 -9 8
-21 13 -26z m3511 -82 c-8 -15 -13 -11 -31 24 -29 56 -26 61 10 24 24 -24 28
-35 21 -48z m-3657 30 c-20 -49 -19 -64 5 -64 17 0 18 -3 8 -24 -9 -21 -13
-23 -24 -11 -8 7 -14 23 -14 34 0 13 -6 21 -16 21 -12 0 -8 10 16 40 17 22 34
40 36 40 2 0 -3 -16 -11 -36z m3900 -51 c25 -38 32 -59 16 -49 -4 3 1 -13 12
-35 11 -22 17 -42 14 -45 -3 -3 -19 23 -35 58 -51 106 -55 140 -7 71z m-3853
5 c-6 -6 -15 -8 -19 -4 -4 4 -1 11 7 16 19 12 27 3 12 -12z m38 18 c0 -3 -4
-8 -10 -11 -5 -3 -10 -1 -10 4 0 6 5 11 10 11 6 0 10 -2 10 -4z m140 -23 c-1
-21 -38 -69 -46 -60 -3 3 0 22 7 41 13 37 39 49 39 19z m-110 -17 c0 -8 5 -16
12 -18 8 -3 6 -17 -6 -50 -12 -32 -23 -45 -32 -41 -8 3 -14 9 -14 15 0 5 -4 6
-10 3 -14 -9 -13 -72 2 -77 7 -3 8 -10 4 -17 -7 -10 -10 -11 -16 -1 -5 9 -14
0 -26 -26 l-19 -39 -3 38 c-2 28 2 42 14 51 11 8 17 27 17 53 0 36 2 39 22 35
28 -5 39 12 37 55 -2 18 2 33 8 33 5 0 10 -6 10 -14z m3850 -14 c0 -17 72 -92
82 -86 7 4 8 2 4 -5 -4 -6 2 -24 13 -40 12 -16 21 -34 21 -39 0 -6 7 -18 16
-26 16 -16 10 -41 -7 -31 -15 10 -10 -12 6 -25 19 -16 45 -104 43 -148 -1 -27
-3 -30 -10 -17 -6 9 -8 19 -5 21 3 3 -8 41 -24 85 -16 44 -28 83 -27 87 1 7
-5 24 -31 82 l-11 25 6 -25 c5 -22 1 -21 -33 16 -26 27 -42 56 -50 87 -5 26
-6 47 -2 47 5 0 9 -4 9 -8z m-3990 -70 c0 -21 5 -43 11 -49 7 -7 4 -35 -11
-94 -19 -75 -20 -84 -6 -95 14 -10 13 -13 -7 -31 -12 -11 -32 -26 -44 -32 -18
-9 -23 -8 -28 10 -4 11 -5 21 -3 22 51 26 68 60 52 105 -11 31 -27 32 -32 2
-4 -26 -18 -26 -25 2 -7 26 -1 38 20 38 13 0 14 8 9 39 -3 22 -2 42 3 45 5 3
12 -15 16 -40 5 -35 10 -44 23 -42 13 3 16 13 14 43 -2 21 -9 50 -16 64 -15
30 -11 51 10 51 10 0 14 -12 14 -38z m-109 -41 c-17 -32 -24 -140 -10 -157 6
-7 15 -11 20 -8 5 3 9 -7 8 -23 0 -15 -3 -22 -6 -15 -7 17 -23 15 -23 -3 0
-27 -20 -16 -21 13 -5 126 -4 149 14 185 10 22 21 37 24 34 2 -3 0 -15 -6 -26z
m3866 -101 c-2 -8 -9 3 -15 25 -21 76 -22 100 -2 45 11 -30 19 -62 17 -70z
m261 84 c-4 -3 9 -20 28 -37 20 -18 36 -45 39 -62 6 -38 59 -194 80 -234 20
-39 19 -55 -2 -17 -8 16 -28 40 -44 54 -16 13 -26 29 -22 34 3 7 1 8 -5 4 -20
-12 -93 115 -92 163 1 11 4 9 13 -7 7 -12 16 -20 20 -16 3 4 -2 19 -13 34 -34
48 -22 56 22 15 23 -22 36 -31 28 -20 -8 11 -21 24 -28 28 -7 5 -9 14 -6 20 4
7 4 9 -1 5 -10 -10 -35 10 -35 28 0 8 5 14 12 14 6 0 9 -3 6 -6z m-234 -238
c24 -113 18 -133 -9 -31 -24 90 -34 175 -15 128 5 -12 16 -56 24 -97z m-3734
81 c0 -7 -10 -13 -22 -14 -22 -2 -22 -1 -4 13 24 17 26 17 26 1z m-220 -37 c0
-16 5 -32 10 -35 6 -3 10 -16 10 -28 0 -16 -3 -19 -9 -8 -5 7 -14 10 -20 7 -8
-5 -11 10 -11 49 0 35 4 54 10 50 6 -3 10 -19 10 -35z m210 -42 c-5 -7 -25
-33 -42 -58 -21 -29 -33 -40 -35 -30 -2 9 -13 21 -24 28 -22 14 -21 15 -36
-58 -9 -44 -9 -44 -9 22 1 60 3 67 19 62 24 -7 104 33 119 59 11 19 13 20 16
5 2 -10 -2 -23 -8 -30z m47 -10 c-3 -7 -5 -2 -5 12 0 14 2 19 5 13 2 -7 2 -19
0 -25z m3730 -40 c-3 -8 -6 -5 -6 6 -1 11 2 17 5 13 3 -3 4 -12 1 -19z m-3674
-29 c5 -3 2 -9 -7 -12 -12 -5 -16 0 -16 15 0 12 3 17 8 12 4 -5 11 -12 15 -15z
m-165 -106 c-22 -38 -42 -59 -60 -64 l-26 -7 14 34 c8 18 14 45 14 59 0 14 5
25 10 25 6 0 10 -7 10 -16 0 -23 24 -11 28 14 2 12 7 20 12 17 5 -3 12 0 16 7
6 9 9 9 12 0 2 -7 -11 -38 -30 -69z m3967 -8 c13 -22 26 -60 30 -85 5 -45 5
-44 -35 35 -21 44 -44 94 -50 110 l-10 30 20 -25 c11 -14 31 -43 45 -65z
m-3875 -10 c-9 -27 -17 -35 -35 -35 -33 0 -38 13 -21 52 8 18 17 41 20 52 6
17 8 16 27 -8 18 -23 19 -30 9 -61z m4130 10 c0 -5 -5 -3 -10 5 -5 8 -10 20
-10 25 0 6 5 3 10 -5 5 -8 10 -19 10 -25z"/>
<path d="M4505 5400 c10 -11 20 -20 23 -20 3 0 -3 9 -13 20 -10 11 -20 20 -23
20 -3 0 3 -9 13 -20z"/>
<path d="M4558 5331 c9 -16 19 -28 21 -25 6 6 -21 54 -30 54 -5 0 0 -13 9 -29z"/>
<path d="M5019 4599 c-4 -22 -5 -48 0 -44 3 3 16 -11 29 -32 23 -36 24 -34 6
12 l-7 20 24 -20 24 -20 -19 22 c-10 12 -23 21 -30 20 -6 -1 -11 6 -11 15 0
15 -14 38 -16 27z"/>
<path d="M4930 4945 c13 -14 26 -25 28 -25 3 0 -5 11 -18 25 -13 14 -26 25
-28 25 -3 0 5 -11 18 -25z"/>
<path d="M2683 4713 c9 -2 25 -2 35 0 9 3 1 5 -18 5 -19 0 -27 -2 -17 -5z"/>
<path d="M2536 4695 c-16 -12 -17 -15 -4 -15 9 0 18 7 22 15 7 18 6 18 -18 0z"/>
<path d="M2610 4700 c-9 -6 -10 -10 -3 -10 6 0 15 5 18 10 8 12 4 12 -15 0z"/>
<path d="M2450 4680 c0 -5 15 -10 33 -9 27 0 29 2 12 9 -28 12 -45 12 -45 0z"/>
<path d="M2665 4673 c-34 -8 -38 -20 -5 -15 16 2 30 8 30 13 0 5 -1 8 -2 8 -2
-1 -12 -3 -23 -6z"/>
<path d="M2809 4658 c-10 -18 -9 -20 5 -15 9 4 16 3 16 -2 0 -4 33 -8 73 -8
l72 1 -63 3 c-36 2 -60 8 -57 13 4 6 1 10 -5 10 -6 0 -8 5 -5 10 3 6 -1 10 -9
10 -8 0 -20 -10 -27 -22z"/>
<path d="M1247 4618 c-6 -45 5 -70 24 -51 13 13 8 85 -7 90 -7 2 -14 -14 -17
-39z"/>
<path d="M2708 4653 c7 -3 16 -2 19 1 4 3 -2 6 -13 5 -11 0 -14 -3 -6 -6z"/>
<path d="M2398 4643 c-10 -2 -18 -9 -18 -14 0 -6 -4 -8 -9 -4 -5 3 -12 1 -16
-5 -10 -16 12 -12 47 10 32 19 31 22 -4 13z"/>
<path d="M2750 4643 c8 -3 22 -11 30 -17 13 -10 13 -9 1 7 -7 9 -21 17 -30 16
-13 0 -14 -1 -1 -6z"/>
<path d="M2231 4626 c-19 -23 0 -24 49 -4 40 17 17 18 -26 1 -12 -4 -15 -3
-10 5 10 17 1 15 -13 -2z"/>
<path d="M4298 4623 c7 -3 16 -2 19 1 4 3 -2 6 -13 5 -11 0 -14 -3 -6 -6z"/>
<path d="M4375 4619 c-15 -6 -9 -7 19 -4 22 3 42 8 45 10 8 9 -43 4 -64 -6z"/>
<path d="M4465 4620 c4 -6 11 -8 16 -5 14 9 11 15 -7 15 -8 0 -12 -5 -9 -10z"/>
<path d="M2533 4613 c-19 -7 -16 -22 5 -21 9 0 31 -2 47 -6 17 -3 23 -3 15 1
-8 3 -21 12 -28 20 -14 14 -19 15 -39 6z"/>
<path d="M2710 4609 c0 -12 24 -22 45 -17 12 2 7 7 -14 15 -18 6 -31 7 -31 2z"/>
<path d="M3050 4616 c0 -3 9 -10 20 -16 11 -6 20 -8 20 -6 0 3 -9 10 -20 16
-11 6 -20 8 -20 6z"/>
<path d="M2127 4585 c-30 -26 -26 -33 8 -12 11 7 21 18 23 25 3 16 2 16 -31
-13z"/>
<path d="M2960 4600 c-13 -8 -12 -10 3 -10 9 0 17 5 17 10 0 12 -1 12 -20 0z"/>
<path d="M4128 4603 c7 -3 16 -2 19 1 4 3 -2 6 -13 5 -11 0 -14 -3 -6 -6z"/>
<path d="M2048 4593 c7 -3 16 -2 19 1 4 3 -2 6 -13 5 -11 0 -14 -3 -6 -6z"/>
<path d="M2200 4596 c0 -2 7 -7 16 -10 8 -3 12 -2 9 4 -6 10 -25 14 -25 6z"/>
<path d="M2249 4583 c-13 -17 -13 -17 6 -3 11 8 22 16 24 17 2 2 0 3 -6 3 -6
0 -17 -8 -24 -17z"/>
<path d="M4003 4584 c-18 -8 -33 -15 -33 -17 0 -1 30 -3 68 -3 56 -1 60 0 27
6 l-40 7 50 3 c45 2 47 3 20 10 -43 11 -56 10 -92 -6z"/>
<path d="M4672 4575 c0 -16 2 -22 5 -12 2 9 2 23 0 30 -3 6 -5 -1 -5 -18z"/>
<path d="M4180 4578 c0 -13 37 -19 61 -10 21 8 19 10 -18 13 -24 3 -43 1 -43
-3z"/>
<path d="M4293 4583 c9 -2 25 -2 35 0 9 3 1 5 -18 5 -19 0 -27 -2 -17 -5z"/>
<path d="M4398 4583 c12 -2 32 -2 45 0 12 2 2 4 -23 4 -25 0 -35 -2 -22 -4z"/>
<path d="M2300 4573 c-14 -3 -32 -11 -40 -18 -18 -15 -73 -28 -114 -27 -19 0
-25 -3 -19 -9 15 -15 159 13 155 30 -2 9 4 12 18 8 11 -3 20 -1 20 3 0 5 10
11 23 13 18 3 18 4 2 4 -11 0 -31 -2 -45 -4z"/>
<path d="M2697 4561 c3 -12 19 -23 44 -29 21 -5 36 -6 33 -1 -3 5 -13 9 -22 9
-9 0 -24 5 -32 10 -13 9 -13 11 0 20 12 8 11 10 -7 10 -16 0 -20 -5 -16 -19z"/>
<path d="M2786 4561 c10 -10 80 -24 72 -15 -4 3 -23 10 -43 14 -21 5 -34 5
-29 1z"/>
<path d="M2355 4544 c-33 -6 -62 -12 -65 -13 -3 -1 3 -6 13 -12 18 -10 57 -3
67 12 10 15 115 11 169 -6 11 -3 21 -4 21 -1 0 6 -63 22 -110 28 -19 2 -62 -1
-95 -8z"/>
<path d="M2872 4548 c3 -7 13 -14 24 -16 15 -2 16 -1 5 7 -11 7 -9 10 10 14
19 3 17 5 -9 6 -23 1 -32 -3 -30 -11z"/>
<path d="M2966 4545 c-3 -8 -1 -16 4 -16 20 -3 25 -4 38 -12 7 -5 10 -12 8
-16 -3 -4 12 -5 32 -2 23 3 29 6 17 8 -11 2 -35 12 -53 21 -32 16 -32 17 -10
24 22 6 22 6 -3 7 -15 1 -29 -5 -33 -14z"/>
<path d="M4360 4550 c8 -5 20 -10 25 -10 6 0 3 5 -5 10 -8 5 -19 10 -25 10 -5
0 -3 -5 5 -10z"/>
<path d="M2668 4543 c7 -3 16 -2 19 1 4 3 -2 6 -13 5 -11 0 -14 -3 -6 -6z"/>
<path d="M4215 4540 c27 -12 43 -12 25 0 -8 5 -22 9 -30 9 -10 0 -8 -3 5 -9z"/>
<path d="M4466 4535 c4 -8 14 -15 23 -15 13 0 13 2 2 9 -11 7 -10 10 5 14 14
3 11 5 -8 6 -20 1 -26 -3 -22 -14z"/>
<path d="M2016 4532 c-3 -5 -18 -8 -33 -7 -15 1 -19 0 -8 -2 11 -3 26 -10 33
-16 10 -7 18 -6 30 7 16 16 16 17 -2 10 -13 -5 -17 -4 -12 4 4 7 5 12 2 12 -3
0 -7 -4 -10 -8z"/>
<path d="M4006 4524 c-8 -7 -42 -15 -77 -17 -58 -3 -56 -3 21 -5 58 -1 80 1
70 8 -12 8 -12 10 5 10 11 0 26 4 34 9 9 6 5 9 -13 9 -15 0 -33 -6 -40 -14z"/>
<path d="M3883 4523 c9 -2 23 -2 30 0 6 3 -1 5 -18 5 -16 0 -22 -2 -12 -5z"/>
<path d="M4410 4526 c0 -2 11 -6 25 -8 13 -3 22 -1 19 3 -5 9 -44 13 -44 5z"/>
<path d="M1925 4509 c-4 -6 -5 -12 -2 -15 2 -3 7 2 10 11 7 17 1 20 -8 4z"/>
<path d="M2908 4513 c7 -3 16 -2 19 1 4 3 -2 6 -13 5 -11 0 -14 -3 -6 -6z"/>
<path d="M4178 4513 c7 -3 16 -2 19 1 4 3 -2 6 -13 5 -11 0 -14 -3 -6 -6z"/>
<path d="M2094 4499 c1 -7 20 -12 43 -13 23 0 39 3 36 7 -3 5 -21 7 -39 5 -19
-2 -36 0 -38 4 -3 5 -4 3 -2 -3z"/>
<path d="M2968 4503 c7 -3 16 -2 19 1 4 3 -2 6 -13 5 -11 0 -14 -3 -6 -6z"/>
<path d="M4125 4499 c-16 -6 -14 -8 13 -8 33 -1 41 4 20 12 -7 2 -22 1 -33 -4z"/>
<path d="M4456 4501 c-19 -7 -19 -8 2 -13 12 -4 20 -2 17 2 -3 5 5 11 17 13
19 4 20 4 3 5 -11 0 -29 -3 -39 -7z"/>
<path d="M3778 4493 c7 -3 16 -2 19 1 4 3 -2 6 -13 5 -11 0 -14 -3 -6 -6z"/>
<path d="M4315 4490 c-16 -7 -17 -9 -3 -9 9 -1 20 4 23 9 7 11 7 11 -20 0z"/>
<path d="M3044 4481 c3 -5 16 -11 28 -14 22 -6 22 -5 4 8 -22 17 -40 20 -32 6z"/>
<path d="M1956 4467 c-16 -12 -14 -13 18 -9 20 2 36 8 36 13 0 13 -34 11 -54
-4z"/>
<path d="M3850 4473 c-58 -7 -53 -18 10 -18 32 -1 57 3 54 6 -2 4 4 10 13 12
22 6 -28 5 -77 0z"/>
<path d="M4168 4463 c12 -2 30 -2 40 0 9 3 -1 5 -23 4 -22 0 -30 -2 -17 -4z"/>
<path d="M1885 4440 c3 -5 3 -10 -2 -10 -4 -1 -21 -12 -38 -27 -21 -18 -23
-21 -5 -9 14 9 35 21 48 28 25 13 29 28 6 28 -8 0 -12 -4 -9 -10z"/>
<path d="M3840 4430 c-19 -4 -46 -12 -60 -18 -23 -10 -21 -11 20 -11 59 -1 90
8 90 25 0 8 -3 13 -7 13 -5 -1 -24 -5 -43 -9z"/>
<path d="M4000 4430 l-25 -8 28 -1 c15 -1 27 4 27 9 0 6 -1 10 -2 9 -2 -1 -14
-5 -28 -9z"/>
<path d="M1197 4354 c-3 -5 -7 -25 -9 -44 -2 -26 1 -35 12 -35 9 0 16 11 18
27 3 29 -12 67 -21 52z"/>
<path d="M2355 4334 c-67 -14 -114 -38 -227 -118 -124 -86 -160 -126 -101
-111 26 6 97 52 138 88 11 10 33 26 50 36 l30 17 0 -67 c0 -66 0 -66 -23 -58
-36 14 -94 11 -90 -3 3 -7 18 -14 34 -16 16 -2 52 -11 79 -22 189 -70 266 -68
582 11 79 20 92 26 87 41 -4 13 -1 16 9 12 8 -3 18 -1 21 5 16 26 -229 153
-340 177 -64 13 -201 17 -249 8z m165 -44 c0 -24 -36 -46 -44 -27 -3 7 -7 4
-11 -9 -5 -15 -12 -20 -26 -17 -26 7 -24 27 4 46 l22 16 -27 0 c-15 1 -38 -3
-52 -9 -15 -5 -26 -6 -26 -1 0 15 21 19 93 20 60 1 67 -1 67 -19z m-173 4 c-3
-3 -12 -4 -19 -1 -8 3 -5 6 6 6 11 1 17 -2 13 -5z m385 -47 c48 -22 85 -44 82
-49 -3 -5 -1 -15 6 -23 17 -20 -4 -53 -38 -61 -15 -3 -49 -12 -77 -19 -77 -20
-194 -39 -201 -32 -4 4 7 22 24 41 43 49 53 118 27 178 -6 16 -2 17 41 12 27
-4 88 -25 136 -47z m-202 -67 c0 -11 -4 -20 -10 -20 -5 0 -10 9 -10 20 0 11 5
20 10 20 6 0 10 -9 10 -20z m-110 -10 c0 -5 -7 -7 -15 -4 -8 4 -15 8 -15 10 0
2 7 4 15 4 8 0 15 -4 15 -10z m73 -7 c-7 -2 -19 -2 -25 0 -7 3 -2 5 12 5 14 0
19 -2 13 -5z m-128 -79 c32 -15 23 -14 -50 6 -28 7 -28 8 -5 9 14 0 39 -6 55
-15z m108 -21 c-7 -2 -19 -2 -25 0 -7 3 -2 5 12 5 14 0 19 -2 13 -5z"/>
<path d="M432 4307 c-48 -51 -11 -89 53 -57 21 11 41 18 43 15 10 -10 -31 -44
-57 -47 -31 -4 -40 -37 -17 -61 9 -9 16 -28 16 -44 0 -16 4 -33 9 -38 17 -17
17 -79 1 -92 -18 -14 -20 -104 -2 -125 7 -9 8 -19 2 -28 -6 -8 -10 -44 -10
-80 0 -75 32 -151 88 -207 57 -57 86 -38 33 23 -61 68 -83 118 -80 181 1 32 2
100 3 151 0 50 4 92 7 92 4 0 10 16 14 36 3 20 14 52 23 71 15 31 15 36 1 46
-19 15 -6 77 16 77 8 0 13 9 13 23 -2 41 -49 76 -61 45 -3 -8 -6 -6 -6 4 -1
18 -29 38 -54 38 -7 0 -23 -10 -35 -23z"/>
<path d="M3885 4276 c-41 -24 -81 -51 -120 -81 -22 -17 -48 -34 -57 -38 -22
-8 -23 -35 -2 -65 13 -19 24 -22 88 -22 40 0 106 -9 147 -19 119 -31 285 -28
389 9 19 6 41 14 49 16 10 3 6 13 -17 35 -17 17 -34 38 -37 48 -9 29 -95 84
-169 109 -76 25 -234 30 -271 8z m55 -26 c0 -5 -9 -10 -19 -10 -11 0 -23 -4
-26 -10 -7 -12 -25 -13 -25 -2 0 8 38 29 58 31 6 0 12 -3 12 -9z m154 4 c20
-8 21 -24 2 -24 -8 0 -17 -11 -20 -25 -4 -14 -11 -23 -17 -20 -7 5 -7 11 0 19
6 7 6 17 1 26 -18 29 -4 39 34 24z m-64 -38 c0 -8 -7 -17 -16 -20 -23 -9 -24
-8 -24 14 0 13 7 20 20 20 11 0 20 -6 20 -14z m220 -29 c36 -31 70 -70 70 -83
0 -16 -46 -34 -85 -34 -19 0 -46 -5 -60 -12 -33 -15 -40 -6 -22 29 8 15 18 52
22 81 6 48 9 52 28 46 12 -3 33 -16 47 -27z m-418 -20 c-2 -14 2 -35 8 -46 10
-20 8 -21 -35 -21 -41 0 -45 2 -45 25 0 13 7 30 15 37 9 7 21 18 28 25 18 19
32 9 29 -20z m278 -97 c0 -5 -14 -10 -31 -10 -17 0 -28 4 -24 10 3 6 17 10 31
10 13 0 24 -4 24 -10z"/>
<path d="M4682 4140 c0 -19 2 -27 5 -17 2 9 2 25 0 35 -3 9 -5 1 -5 -18z"/>
<path d="M4888 4128 c-2 -7 -1 -31 3 -53 6 -40 6 -39 8 13 1 51 -3 65 -11 40z"/>
<path d="M4695 4045 c-3 -8 -7 -21 -9 -29 -3 -8 -1 -27 4 -43 9 -30 10 -27 13
50 2 39 -1 47 -8 22z"/>
<path d="M3875 3466 c10 -14 19 -26 22 -26 7 0 -17 39 -28 46 -6 3 -3 -5 6
-20z"/>
<path d="M1053 3138 c-32 -40 -113 -229 -113 -265 0 -27 19 -12 30 25 7 20 32
84 57 140 41 97 50 130 26 100z"/>
<path d="M3277 3063 c-22 -4 -28 -9 -25 -26 2 -12 13 -24 28 -28 126 -35 171
-45 191 -43 13 1 27 3 32 3 23 3 0 25 -50 47 -49 22 -148 57 -148 52 0 0 -13
-3 -28 -5z"/>
<path d="M1051 2959 c-13 -39 -15 -127 -2 -113 7 7 21 144 15 144 -1 0 -7 -14
-13 -31z"/>
<path d="M3677 2777 c-4 -10 -7 -39 -7 -63 0 -50 -10 -55 -38 -19 -11 14 -27
25 -35 25 -9 0 -20 7 -25 16 -18 32 -22 -4 -6 -46 10 -25 42 -64 83 -101 83
-77 106 -88 128 -66 16 15 13 19 -30 59 -52 46 -57 58 -25 58 l21 0 -22 24
c-15 16 -25 43 -30 78 -4 37 -9 47 -14 35z"/>
<path d="M1155 2739 c-18 -70 11 -299 37 -299 5 0 8 63 8 139 0 122 -2 142
-19 162 l-19 24 -7 -26z"/>
<path d="M3380 2695 c-35 -51 -57 -58 -62 -17 -4 38 -31 34 -45 -8 l-12 -35 0
31 c-1 17 -4 33 -7 37 -3 3 -28 -16 -55 -43 -47 -47 -84 -68 -97 -56 -3 4 0
12 6 18 7 7 12 18 12 26 0 24 -56 9 -166 -45 -54 -26 -102 -49 -105 -51 -4 -1
-4 9 -1 23 6 31 54 70 119 95 26 11 41 19 32 20 -27 0 -102 -29 -144 -58 -22
-14 -44 -25 -49 -24 -5 2 -16 -3 -25 -11 -9 -8 -24 -17 -33 -20 -10 -3 -24
-21 -31 -39 -12 -28 -23 -36 -69 -51 -67 -21 -82 -21 -74 -2 3 8 3 15 0 15
-13 0 -51 -26 -79 -53 -30 -30 -112 -73 -122 -63 -9 8 47 74 90 106 l41 30
-30 0 c-39 0 -193 -71 -200 -92 -3 -9 -29 -29 -59 -43 -30 -15 -59 -33 -64
-39 -6 -7 -38 -21 -71 -31 -62 -19 -86 -36 -75 -55 12 -20 60 -9 164 39 58 27
125 53 149 58 38 9 42 8 42 -9 0 -29 37 -37 103 -21 72 16 110 35 55 26 -23
-3 -38 -2 -38 5 0 19 68 62 99 62 16 0 42 5 58 11 15 7 44 15 63 18 29 5 39
14 57 51 12 25 29 54 38 65 14 18 15 18 15 -13 0 -18 -7 -44 -16 -57 -9 -14
-14 -31 -11 -39 9 -22 74 -31 115 -16 28 10 36 10 44 -1 8 -11 9 -10 5 2 -4
13 10 22 66 40 57 19 66 25 45 27 -43 5 -33 24 32 60 67 37 82 25 30 -25 -16
-15 -30 -32 -30 -37 0 -5 29 -6 65 -3 35 3 67 2 69 -2 3 -5 -20 -11 -52 -14
-67 -8 -109 -15 -137 -24 -20 -7 -29 -9 -54 -11 -7 -1 -11 -8 -7 -17 4 -12 -3
-15 -34 -15 -30 0 -40 -4 -45 -21 -5 -16 -12 -19 -34 -14 -38 8 -81 -10 -81
-34 0 -24 36 -51 67 -51 12 0 24 -4 27 -9 3 -5 45 -21 93 -36 49 -15 93 -31
98 -36 14 -11 88 -29 155 -39 73 -10 343 -4 402 9 133 30 173 55 234 147 30
46 33 56 26 90 -5 24 -14 39 -22 39 -8 0 -18 7 -22 17 -8 20 -64 15 -153 -14
-130 -43 -376 -39 -367 6 3 15 0 18 -21 12 -28 -7 -57 1 -57 15 0 5 15 9 33 9
34 0 39 5 130 134 27 39 35 80 18 91 -6 3 -24 -15 -41 -40z m-137 -232 c-7 -2
-19 -2 -25 0 -7 3 -2 5 12 5 14 0 19 -2 13 -5z m572 -2 c3 -6 -4 -15 -15 -21
-11 -6 -20 -17 -20 -25 0 -8 -7 -15 -15 -15 -8 0 -15 -9 -15 -20 0 -28 -46
-70 -80 -71 -52 -3 -55 -4 -63 -16 -7 -11 -50 -14 -182 -16 -69 -1 -149 11
-153 23 -2 5 -13 5 -29 -1 -20 -7 -30 -6 -43 6 -9 8 -23 15 -30 15 -7 0 -21 6
-29 14 -9 7 -29 18 -46 23 -52 17 -36 35 50 56 76 19 85 19 180 4 55 -9 127
-14 160 -11 33 3 77 5 98 4 21 0 53 6 69 15 17 8 38 15 47 16 9 0 32 6 51 13
44 17 57 18 65 7z m-720 -21 c-3 -5 -16 -10 -28 -9 -20 1 -20 2 3 9 14 4 26 8
28 9 2 1 0 -3 -3 -9z m-62 -17 c-7 -2 -19 -2 -25 0 -7 3 -2 5 12 5 14 0 19 -2
13 -5z"/>
<path d="M988 2700 c-12 -40 -10 -146 2 -134 6 6 10 43 8 85 -2 51 -5 66 -10
49z"/>
<path d="M3894 2615 c16 -13 55 -31 87 -40 57 -15 81 -17 200 -12 44 1 62 -2
77 -16 24 -22 50 -14 32 8 -9 11 -63 31 -188 71 -9 3 -10 -1 -2 -16 7 -13 7
-21 -1 -25 -18 -12 -111 5 -174 30 l-60 24 29 -24z"/>
<path d="M1070 2533 c0 -91 11 -146 21 -111 8 26 -2 208 -12 208 -5 0 -9 -44
-9 -97z"/>
<path d="M3435 2598 c-64 -17 -84 -30 -85 -51 0 -17 33 -20 45 -4 7 9 16 13
21 8 5 -5 34 -5 64 -1 30 4 70 3 90 -1 59 -14 86 -5 74 25 -16 41 -109 52
-209 24z"/>
<path d="M3817 2569 c-7 -27 7 -57 42 -87 31 -27 101 -65 108 -59 9 10 -33 82
-55 93 -13 6 -38 26 -56 43 -33 32 -33 32 -39 10z"/>
<path d="M2594 2535 c-17 -13 -17 -14 -2 -15 9 0 20 5 23 11 11 17 0 20 -21 4z"/>
<path d="M4174 2479 c44 -10 81 -17 84 -14 13 13 -19 23 -88 29 l-75 5 79 -20z"/>
<path d="M4510 2490 c0 -5 23 -10 51 -10 31 0 48 4 44 10 -3 6 -26 10 -51 10
-24 0 -44 -4 -44 -10z"/>
<path d="M4435 2480 c3 -5 8 -10 11 -10 2 0 4 5 4 10 0 6 -5 10 -11 10 -5 0
-7 -4 -4 -10z"/>
<path d="M4406 2435 l-40 -24 30 -7 c39 -9 53 -21 47 -43 -2 -9 3 -23 11 -30
11 -9 16 -31 16 -67 0 -63 -16 -80 -25 -27 -13 76 -29 83 -49 23 -8 -24 -17
-34 -28 -32 -9 1 -21 -5 -26 -15 -15 -28 -33 -158 -26 -191 4 -20 1 -38 -10
-53 -11 -16 -16 -45 -16 -96 0 -80 -12 -115 -47 -138 -12 -9 -23 -22 -23 -30
0 -19 9 -19 29 0 9 8 26 23 39 35 19 17 22 30 22 89 0 51 5 74 19 92 10 13 21
34 25 47 9 27 23 28 31 2 7 -21 39 -27 50 -10 3 5 10 53 14 105 6 65 13 101
25 113 11 13 16 37 16 78 0 69 10 84 59 84 42 0 31 17 -14 22 -45 5 -38 31 10
42 22 4 86 10 143 13 161 7 121 23 -57 23 -96 0 -162 4 -166 10 -8 13 -13 12
-59 -15z"/>
<path d="M1270 2330 l0 -119 31 -17 c24 -12 37 -13 54 -6 46 21 50 -32 14
-190 -11 -48 -11 -59 2 -74 13 -15 15 -10 20 50 4 52 11 72 31 94 13 15 29 44
35 64 10 34 9 37 -11 40 -17 2 -22 11 -24 41 -3 38 -4 38 -23 21 -18 -16 -20
-16 -39 1 -16 14 -20 31 -20 79 0 63 -11 98 -24 77 -12 -18 -26 -2 -26 30 0
16 -4 29 -10 29 -6 0 -10 -47 -10 -120z"/>
<path d="M4180 2410 c0 -13 70 -13 90 0 11 7 0 10 -37 10 -29 0 -53 -4 -53
-10z"/>
<path d="M981 2328 c-1 -45 7 -68 25 -68 17 0 18 12 3 27 -6 6 -15 26 -19 45
l-8 33 -1 -37z"/>
<path d="M1040 2241 c0 -12 5 -21 10 -21 6 0 10 -8 10 -18 0 -10 16 -42 35
-72 21 -32 33 -61 29 -72 -3 -9 2 -30 10 -46 15 -30 26 -196 13 -209 -16 -15
-31 19 -37 84 -4 47 -9 62 -14 50 -5 -10 -6 -47 -3 -83 4 -56 3 -65 -11 -62
-9 2 -27 21 -39 43 -12 22 -23 37 -23 33 0 -8 61 -181 66 -187 2 -2 12 3 22
13 18 15 20 15 46 -11 23 -22 29 -25 37 -13 9 14 8 29 -7 113 -11 64 62 93 78
30 9 -33 50 -73 76 -73 13 0 13 3 4 12 -7 7 -12 21 -12 32 0 12 -11 53 -25 91
-17 48 -25 92 -25 138 0 38 -4 67 -10 67 -5 0 -10 -9 -10 -21 0 -42 -25 -11
-35 44 -12 66 -31 92 -46 64 -13 -23 -29 -13 -29 19 0 13 -4 24 -10 24 -5 0
-10 -9 -10 -19 0 -24 -25 -34 -41 -15 -6 8 -14 28 -18 46 -7 36 -31 51 -31 19z"/>
<path d="M1564 2236 c-4 -10 -18 -22 -33 -28 -14 -6 -21 -12 -15 -15 7 -2 10
-24 8 -56 l-4 -52 20 60 c10 33 24 68 30 78 6 11 9 21 6 24 -3 3 -8 -2 -12
-11z"/>
<path d="M2030 2200 c-13 -9 -13 -10 0 -9 8 0 24 4 35 9 l20 9 -20 0 c-11 0
-27 -4 -35 -9z"/>
<path d="M1670 2060 c0 -67 4 -110 10 -110 6 0 10 43 10 110 0 67 -4 110 -10
110 -6 0 -10 -43 -10 -110z"/>
<path d="M1802 2137 c-12 -12 -28 -51 -37 -85 -9 -35 -23 -78 -31 -97 -8 -19
-14 -59 -14 -90 0 -31 -6 -68 -14 -83 -20 -39 -20 -151 0 -159 22 -8 30 5 16
27 -16 26 -15 55 2 69 11 9 18 6 35 -15 23 -29 27 -54 10 -71 -8 -8 -8 -13 0
-17 6 -4 11 -31 11 -60 0 -58 26 -106 49 -92 9 6 8 13 -3 32 -22 33 -21 152 1
199 21 45 44 44 74 -2 13 -21 39 -45 56 -53 40 -18 48 -40 33 -84 -23 -71 -10
-166 24 -166 8 0 20 -10 29 -22 14 -21 16 -22 22 -5 6 14 -1 26 -29 48 -29 25
-36 37 -36 67 0 53 14 96 49 148 17 25 31 49 31 54 0 5 -15 6 -34 3 -28 -4
-39 -1 -60 20 -14 15 -26 36 -26 47 0 63 43 165 84 199 38 32 3 42 -46 14 -16
-10 -44 -41 -63 -69 -40 -60 -58 -76 -79 -72 -8 2 -22 -6 -30 -17 -8 -11 -17
-17 -21 -14 -3 4 -8 51 -11 104 -2 54 -7 101 -9 106 -10 15 17 107 36 125 20
18 25 34 11 34 -5 0 -18 -10 -30 -23z"/>
<path d="M4516 2015 c-4 -14 -17 -30 -30 -35 -19 -7 -27 -21 -37 -65 -9 -42
-10 -58 -1 -67 22 -22 11 -133 -11 -125 -7 2 -14 14 -18 28 -6 23 -7 23 -14 4
-4 -11 -13 -37 -21 -58 -8 -20 -14 -47 -14 -58 0 -20 -24 -104 -40 -144 -5
-11 -11 -51 -13 -89 -6 -81 -24 -105 -85 -113 -23 -3 -39 -9 -36 -14 7 -12 71
-11 94 1 15 8 21 6 30 -11 7 -11 9 -32 6 -45 -4 -14 -2 -24 4 -24 5 0 10 5 10
11 0 5 5 7 10 4 13 -8 13 -56 -1 -75 -8 -11 -12 -12 -16 -2 -9 22 -23 2 -23
-32 0 -18 -9 -45 -20 -59 -25 -31 -25 -37 -1 -37 32 0 40 -21 30 -74 -10 -57
-21 -72 -54 -80 -37 -9 -30 -26 10 -26 30 0 35 -3 35 -23 0 -26 -75 -109 -119
-132 -16 -8 -38 -25 -48 -38 -16 -20 -69 -47 -94 -47 -23 0 -3 32 66 108 68
75 90 112 66 112 -5 0 -15 -7 -22 -16 -17 -21 -112 -85 -165 -112 -26 -13 -44
-30 -48 -46 -3 -14 -24 -34 -51 -50 -29 -17 -45 -34 -45 -46 0 -29 30 -25 97
10 40 21 65 29 83 25 16 -3 60 5 109 20 67 21 91 35 123 68 53 55 98 182 98
274 0 45 6 76 21 105 39 76 74 370 50 416 -4 9 -11 45 -15 80 -7 58 -5 63 19
87 31 27 44 75 45 155 0 30 10 87 21 125 23 83 34 135 26 135 -2 0 -8 -11 -11
-25z"/>
<path d="M1598 1971 c-13 -57 -10 -108 7 -115 19 -7 31 19 17 37 -6 7 -12 35
-14 62 -3 48 -3 49 -10 16z"/>
<path d="M3115 1955 c8 -37 36 -87 53 -93 25 -8 14 18 -46 104 -11 17 -12 16
-7 -11z"/>
<path d="M3220 1948 c0 -7 12 -24 25 -37 14 -13 25 -31 25 -41 0 -25 27 -50
46 -43 13 5 12 9 -5 27 -12 12 -21 34 -21 48 0 20 -8 31 -32 42 -38 19 -38 19
-38 4z"/>
<path d="M4247 1953 c-4 -3 -7 -16 -7 -27 0 -12 -7 -31 -15 -43 -11 -16 -12
-24 -4 -29 18 -11 39 25 39 68 0 39 -2 43 -13 31z"/>
<path d="M3646 1922 c-3 -6 -9 -32 -12 -59 -12 -91 -48 -130 -106 -118 -20 5
-28 4 -24 -3 11 -18 67 -25 92 -11 30 16 42 5 25 -22 -7 -12 -10 -23 -8 -25
10 -11 36 10 48 38 25 62 12 243 -15 200z"/>
<path d="M4165 1848 c-12 -63 -27 -89 -47 -86 -15 2 -23 -6 -33 -34 -7 -21
-20 -49 -29 -63 -20 -31 -20 -44 1 -67 16 -18 16 -23 0 -86 -10 -37 -35 -94
-58 -128 -38 -58 -39 -62 -25 -89 16 -30 10 -51 -22 -88 -8 -9 -12 -20 -8 -25
5 -4 15 3 25 16 9 13 28 38 43 56 20 24 24 36 17 49 -17 29 -1 53 52 77 64 31
118 96 139 171 12 42 5 36 -20 -16 -25 -51 -106 -138 -124 -132 -23 8 2 173
36 242 14 28 33 77 43 110 10 33 24 68 33 77 15 17 11 48 -7 48 -5 0 -12 -15
-16 -32z"/>
<path d="M3075 1836 c19 -28 75 -63 75 -47 0 6 -21 24 -46 42 l-46 31 17 -26z"/>
<path d="M3360 1840 c0 -5 7 -10 16 -10 8 0 12 5 9 10 -3 6 -10 10 -16 10 -5
0 -9 -4 -9 -10z"/>
<path d="M3446 1785 c10 -8 24 -14 29 -14 6 0 1 6 -9 14 -11 8 -24 15 -30 15
-5 0 -1 -7 10 -15z"/>
<path d="M3285 1760 c-11 -18 16 -51 37 -48 12 2 23 8 25 13 4 13 -55 46 -62
35z"/>
<path d="M1470 1713 c0 -27 7 -59 15 -73 8 -14 18 -33 21 -42 9 -24 21 -23 29
3 5 15 -1 29 -19 48 -20 20 -26 38 -26 69 0 23 -4 42 -10 42 -5 0 -10 -21 -10
-47z"/>
<path d="M2348 1735 c-3 -16 -13 -48 -21 -71 -18 -47 -33 -200 -23 -238 3 -14
15 -34 26 -44 22 -20 20 -31 -15 -92 -8 -14 -15 -34 -15 -46 0 -12 -9 -31 -20
-44 -18 -21 -20 -37 -20 -160 0 -149 6 -169 46 -143 21 13 25 13 46 -1 12 -9
31 -16 41 -16 16 0 14 5 -12 29 -30 28 -37 53 -25 85 8 22 21 20 29 -4 3 -11
13 -20 20 -20 11 0 12 6 5 26 -6 14 -10 57 -10 95 0 75 -10 86 -35 38 -28 -53
-40 -31 -40 70 0 87 2 94 25 112 14 10 30 23 37 29 17 14 36 13 94 -6 27 -9
52 -14 55 -11 3 3 -23 20 -57 39 -70 37 -96 67 -109 123 -6 29 -5 44 7 61 14
22 14 26 -2 50 -9 15 -14 36 -11 52 2 15 1 47 -3 72 -7 43 -7 43 -13 15z m6
-262 c8 -68 -5 -84 -23 -32 -19 55 -11 145 10 107 3 -7 9 -41 13 -75z"/>
<path d="M2442 1676 c5 -59 25 -97 39 -74 14 21 10 65 -6 78 -8 7 -15 21 -15
31 0 11 -5 19 -11 19 -8 0 -10 -18 -7 -54z"/>
<path d="M1630 1656 c0 -25 5 -48 11 -51 16 -10 18 -4 12 48 -7 59 -23 62 -23
3z"/>
<path d="M3232 1649 c2 -7 10 -15 17 -17 8 -3 12 1 9 9 -2 7 -10 15 -17 17 -8
3 -12 -1 -9 -9z"/>
<path d="M2541 1623 c0 -16 4 -37 9 -48 6 -15 9 -8 9 28 1 26 -3 47 -9 47 -5
0 -10 -12 -9 -27z"/>
<path d="M2142 1578 c3 -29 11 -66 18 -83 7 -16 12 -51 11 -77 -2 -29 2 -48 8
-48 7 0 11 37 11 105 0 85 -3 107 -15 111 -8 4 -15 15 -15 25 0 10 -5 19 -11
19 -8 0 -10 -17 -7 -52z"/>
<path d="M1170 1547 c0 -37 6 -48 40 -82 22 -21 40 -45 40 -52 0 -7 12 -20 28
-30 15 -10 45 -36 67 -58 22 -23 51 -50 65 -61 14 -10 33 -32 43 -47 17 -27
20 -27 36 -13 10 9 25 16 34 16 9 0 17 3 17 8 0 13 -64 47 -90 47 -18 0 -28 8
-38 30 -7 17 -17 37 -23 45 -5 8 -14 26 -20 40 -6 14 -17 33 -26 42 -14 16
-17 16 -34 -5 -14 -18 -21 -20 -36 -11 -10 6 -18 22 -19 35 -1 44 -4 49 -24
49 -23 0 -40 28 -40 64 0 14 -4 26 -10 26 -5 0 -10 -19 -10 -43z"/>
<path d="M2470 1562 c0 -48 51 -113 100 -127 20 -5 17 1 -19 31 -24 21 -52 56
-62 78 -14 32 -19 36 -19 18z"/>
<path d="M1330 1541 c0 -12 17 -40 39 -64 21 -23 50 -62 65 -85 15 -24 29 -42
32 -39 2 2 -1 38 -6 81 -6 42 -8 82 -4 89 4 6 -3 2 -15 -11 -30 -31 -60 -25
-88 17 -20 29 -23 31 -23 12z"/>
<path d="M1521 1489 c-1 -39 6 -58 41 -110 42 -63 43 -64 44 -159 0 -52 4
-114 9 -137 14 -75 -37 -98 -96 -45 -24 21 -32 38 -36 75 -3 26 -10 47 -16 47
-15 0 -2 -95 17 -125 9 -14 34 -33 54 -42 20 -8 66 -30 102 -48 l65 -32 3 -56
c2 -45 7 -59 24 -68 29 -16 43 3 18 26 -16 15 -20 31 -20 88 0 65 -1 69 -20
64 -16 -4 -26 3 -44 31 -21 35 -23 47 -21 183 0 81 -2 154 -5 163 -3 9 -16 22
-29 29 -34 17 -62 58 -77 114 l-13 48 0 -46z"/>
<path d="M2670 1444 c0 -17 7 -37 15 -44 19 -16 19 -2 0 41 l-14 34 -1 -31z"/>
<path d="M1660 1415 c0 -14 5 -25 10 -25 6 0 10 11 10 25 0 14 -4 25 -10 25
-5 0 -10 -11 -10 -25z"/>
<path d="M4226 1391 c-33 -34 -105 -77 -160 -95 -35 -12 -8 -17 53 -10 47 5
61 10 61 23 0 9 20 36 45 60 38 38 54 61 42 61 -2 0 -20 -17 -41 -39z"/>
<path d="M3810 1377 c-9 -20 -15 -63 -15 -113 0 -73 -3 -84 -28 -118 -16 -20
-51 -49 -78 -64 -51 -28 -65 -48 -26 -37 37 11 101 59 122 93 11 17 24 31 29
32 4 0 6 -28 2 -62 -18 -196 -15 -224 21 -151 43 87 56 351 19 391 -9 10 -16
26 -16 35 0 29 -16 26 -30 -6z"/>
<path d="M2773 1376 c-29 -14 -29 -43 -3 -94 11 -22 23 -63 27 -92 3 -30 12
-54 20 -57 21 -8 29 6 15 28 -11 17 -10 25 3 45 13 20 14 32 6 57 -6 18 -14
52 -18 76 -9 48 -16 54 -50 37z"/>
<path d="M2585 1293 c2 -16 7 -48 10 -73 10 -85 96 -229 144 -245 32 -10 49
-63 48 -145 -1 -42 -6 -75 -12 -75 -5 0 -11 10 -13 23 -2 12 -8 22 -13 22 -13
0 -11 -144 3 -175 14 -31 34 -27 31 6 -2 21 -1 22 10 9 25 -33 63 -50 105 -50
24 0 71 -7 104 -16 78 -20 123 -16 123 11 0 19 -2 20 -101 45 -23 5 -57 21
-77 34 l-35 24 16 -28 c19 -33 13 -45 -21 -36 -69 17 -113 97 -83 154 15 29
15 34 -4 83 -15 37 -18 55 -10 64 8 10 21 3 59 -34 52 -50 85 -64 196 -81 39
-6 88 -14 109 -17 25 -4 37 -2 33 4 -4 6 -29 13 -57 15 -34 3 -59 13 -74 27
-17 16 -46 26 -96 33 -84 12 -134 47 -146 101 -3 17 -13 41 -21 53 -7 12 -13
26 -12 30 4 23 -3 34 -22 34 -16 0 -19 -4 -14 -17 4 -10 9 -24 12 -32 4 -9 0
-12 -12 -10 -24 5 -98 113 -119 175 -36 100 -71 151 -61 87z"/>
<path d="M2041 1247 c-13 -76 -14 -114 -2 -121 8 -5 26 173 18 181 -3 2 -10
-25 -16 -60z"/>
<path d="M1730 1171 c0 -56 4 -103 10 -106 6 -4 10 32 10 99 0 64 -4 106 -10
106 -6 0 -10 -40 -10 -99z"/>
<path d="M2141 1213 c-1 -35 3 -45 25 -59 23 -16 26 -16 41 -1 15 15 15 17 -3
22 -38 12 -49 23 -55 51 -6 25 -7 24 -8 -13z"/>
<path d="M1843 1204 c-3 -8 -3 -52 -2 -98 5 -100 22 -126 96 -143 40 -10 49
-9 60 5 18 25 11 35 -38 52 -57 20 -71 47 -66 127 4 58 3 61 -20 66 -15 3 -27
-1 -30 -9z"/>
<path d="M2721 1190 c-1 -39 17 -81 37 -88 12 -4 12 0 1 19 -7 13 -18 42 -25
64 l-13 40 0 -35z"/>
<path d="M4059 1084 c-18 -20 -45 -40 -58 -45 l-24 -10 21 -15 c12 -8 22 -20
22 -26 0 -6 -32 -64 -71 -129 -39 -65 -69 -123 -67 -130 2 -7 17 9 34 34 16
26 33 47 38 47 4 0 50 20 101 45 125 60 155 96 154 180 -1 50 -2 55 -9 28 -10
-44 -32 -76 -80 -114 -22 -18 -42 -40 -45 -50 -3 -10 -22 -28 -41 -40 -81 -49
-61 25 43 164 66 89 53 135 -18 61z"/>
<path d="M3040 1070 c14 -11 34 -19 45 -19 15 0 11 5 -15 19 -45 25 -62 25
-30 0z"/>
<path d="M3291 1062 c-13 -24 -15 -151 -2 -171 5 -8 16 -11 26 -7 12 4 23 0
32 -14 26 -36 33 -21 33 69 0 86 -11 125 -23 80 -6 -24 -27 -17 -27 10 0 9 -6
26 -14 36 -13 18 -14 18 -25 -3z"/>
<path d="M3117 1064 c-12 -12 -8 -19 23 -37 17 -10 30 -27 30 -37 0 -26 10
-50 22 -50 12 0 7 25 -15 85 -14 38 -42 56 -60 39z"/>
<path d="M2100 1016 c0 -48 15 -82 44 -101 42 -28 49 -7 11 29 -28 26 -35 41
-35 70 0 20 -4 36 -10 36 -5 0 -10 -15 -10 -34z"/>
<path d="M3591 984 c19 -37 29 -71 29 -100 0 -24 5 -44 10 -44 20 0 15 81 -9
130 -10 19 -16 43 -13 53 2 13 -3 17 -22 17 l-25 0 30 -56z"/>
<path d="M2560 903 c0 -16 5 -35 10 -43 7 -11 10 -4 10 28 0 23 -4 42 -10 42
-5 0 -10 -12 -10 -27z"/>
<path d="M3798 843 c-3 -49 -7 -60 -25 -68 -20 -8 -33 -35 -18 -35 9 0 50 25
57 35 11 15 10 125 -2 125 -5 0 -10 -26 -12 -57z"/>
<path d="M1980 885 c0 -17 31 -75 39 -75 6 0 1 18 -10 40 -19 37 -29 48 -29
35z"/>
<path d="M1822 851 c-1 -8 -12 -25 -24 -38 -20 -21 -20 -24 -5 -41 10 -10 17
-26 17 -36 0 -42 54 -86 105 -86 26 0 16 16 -19 28 -50 18 -60 37 -67 116 -3
39 -6 65 -7 57z"/>
<path d="M2596 833 c4 -10 10 -49 13 -87 3 -38 11 -71 17 -73 10 -3 0 148 -11
168 -11 17 -27 10 -19 -8z"/>
<path d="M4190 834 c0 -8 5 -12 10 -9 6 3 10 10 10 16 0 5 -4 9 -10 9 -5 0
-10 -7 -10 -16z"/>
<path d="M2255 728 c-2 -13 -6 -38 -7 -57 -3 -38 -28 -57 -28 -21 0 12 -4 18
-10 15 -5 -3 -10 -19 -10 -34 0 -15 -5 -32 -11 -38 -8 -8 -8 -17 0 -31 16 -29
14 -62 -4 -62 -20 0 -35 32 -28 59 4 15 -2 33 -16 52 -12 16 -24 43 -27 61
-10 58 -12 60 -34 48 -40 -22 -22 -96 47 -194 34 -48 55 -61 79 -52 11 5 38 9
61 10 56 2 63 12 30 39 -26 20 -28 27 -25 77 3 63 7 64 91 34 35 -12 54 -14
70 -7 19 9 16 11 -28 18 -72 11 -101 29 -115 70 -13 40 -27 45 -35 13z"/>
<path d="M3705 719 c-18 -11 -24 -19 -14 -19 9 0 24 9 34 20 22 24 19 24 -20
-1z"/>
<path d="M3143 704 c4 -4 1 -17 -7 -29 -13 -20 -11 -22 55 -49 39 -16 73 -26
77 -22 15 16 -26 60 -77 83 -30 13 -52 20 -48 17z"/>
<path d="M3445 649 c-16 -33 -37 -65 -47 -70 -11 -6 -18 -21 -18 -41 0 -26 2
-29 15 -18 8 7 15 16 15 21 0 4 11 25 25 45 24 35 51 112 42 120 -2 2 -16 -24
-32 -57z"/>
<path d="M2532 645 c12 -27 28 -33 28 -10 0 8 -9 19 -20 25 -18 10 -19 9 -8
-15z"/>
<path d="M2540 552 c0 -15 -7 -26 -20 -29 -25 -7 -25 -7 1 -42 12 -16 18 -34
15 -40 -10 -15 -169 -14 -184 1 -6 6 -15 8 -19 4 -5 -4 1 -14 12 -23 16 -12
45 -14 150 -10 132 4 185 17 185 45 0 10 -7 12 -24 8 -30 -7 -82 33 -102 79
-12 27 -13 28 -14 7z"/>
<path d="M3697 446 c-8 -58 -21 -76 -53 -76 -33 0 -64 37 -65 79 l-1 36 -9
-31 c-12 -41 -50 -61 -84 -46 -14 7 -38 12 -53 12 -16 0 -33 5 -40 12 -9 9
-12 7 -12 -10 0 -19 -4 -22 -27 -16 -16 3 -39 18 -51 32 l-24 25 4 -23 c1 -13
15 -32 30 -43 30 -22 66 -26 146 -13 53 8 53 8 64 -22 12 -30 12 -30 41 -16
36 19 57 12 57 -20 0 -39 35 -53 69 -28 31 23 51 70 34 80 -7 4 -13 32 -15 62
l-3 55 -8 -49z"/>
<path d="M2810 447 c0 -9 10 -25 22 -37 23 -21 58 -27 58 -10 0 6 -5 10 -12
10 -7 0 -25 12 -40 27 -22 21 -28 23 -28 10z"/>
<path d="M3010 410 c40 -33 80 -52 103 -47 21 3 21 4 2 12 -11 4 -40 17 -65
28 -65 30 -68 31 -40 7z"/>
<path d="M3855 410 c-10 -11 -13 -20 -7 -20 6 0 16 9 22 20 6 11 9 20 7 20 -2
0 -12 -9 -22 -20z"/>
<path d="M2740 372 c0 -12 7 -25 15 -29 25 -9 27 2 6 28 l-20 24 -1 -23z"/>
<path d="M2360 276 c0 -8 51 -13 56 -5 3 5 -9 9 -25 9 -17 0 -31 -2 -31 -4z"/>
<path d="M3075 265 c57 -15 149 -20 125 -6 -8 5 -51 11 -95 15 l-80 5 50 -14z"/>
<path d="M3016 192 c-4 -6 3 -16 14 -22 20 -11 168 -40 203 -40 24 0 21 27 -5
44 -29 19 -202 33 -212 18z"/>
</g>
</svg>
